<svg xmlns="http://www.w3.org/2000/svg" width="121.775" height="50" viewBox="0 0 121.775 50">
  <path id="XMLID_34_" d="M22.309,6.446a7.481,7.481,0,0,1-5.994,2.831,8.482,8.482,0,0,1,2.141-6.208A8.941,8.941,0,0,1,24.4,0a9.032,9.032,0,0,1-2.093,6.446m2.069,3.283c-3.306-.19-6.137,1.879-7.707,1.879-1.594,0-4-1.784-6.613-1.736a9.77,9.77,0,0,0-8.3,5.043C-1.811,21.051.83,30.138,4.279,35.133c1.689,2.474,3.711,5.186,6.375,5.09,2.521-.1,3.52-1.641,6.565-1.641,3.069,0,3.949,1.641,6.613,1.594,2.759-.048,4.5-2.474,6.185-4.948a21.7,21.7,0,0,0,2.759-5.685A8.962,8.962,0,0,1,27.4,21.384a9.152,9.152,0,0,1,4.353-7.659,9.427,9.427,0,0,0-7.374-4m19.1-6.9V39.914h5.756V27.236H57.2c7.279,0,12.393-5,12.393-12.226S64.578,2.831,57.395,2.831H43.48Zm5.756,4.853h6.637c5,0,7.85,2.664,7.85,7.35s-2.854,7.374-7.873,7.374H49.236ZM80.111,40.2A9.524,9.524,0,0,0,88.6,35.466h.119v4.448H94.05V21.456c0-5.352-4.282-8.8-10.871-8.8-6.113,0-10.633,3.5-10.8,8.3h5.186c.428-2.284,2.545-3.782,5.447-3.782,3.52,0,5.495,1.641,5.495,4.662v2.046l-7.184.428c-6.684.4-10.3,3.14-10.3,7.9C71.025,37.012,74.759,40.2,80.111,40.2Zm1.546-4.4c-3.069,0-5.019-1.475-5.019-3.735,0-2.331,1.879-3.687,5.471-3.9l6.4-.4v2.093C88.508,33.325,85.559,35.8,81.657,35.8ZM101.163,50c5.614,0,8.254-2.141,10.561-8.635l10.109-28.354h-5.852L109.2,34.919h-.119L102.3,13.011H96.286l9.753,27-.523,1.641c-.88,2.783-2.307,3.853-4.853,3.853-.452,0-1.332-.048-1.689-.1v4.448A15.856,15.856,0,0,0,101.163,50Z" transform="translate(-0.059)"/>
</svg>
