<svg id="Google_Pay__GPay__Logo" data-name="Google_Pay_(GPay)_Logo" xmlns="http://www.w3.org/2000/svg" width="125.912" height="50" viewBox="0 0 125.912 50">
  <path id="Path_73" data-name="Path 73" d="M194.815,31.836V46.7H190.1V9.994h12.505a11.308,11.308,0,0,1,8.1,3.178,10.215,10.215,0,0,1,3.383,7.746,10.168,10.168,0,0,1-3.383,7.79,11.273,11.273,0,0,1-8.1,3.125h-7.79Zm0-17.323V27.326h7.907a6.348,6.348,0,0,0,4.665-10.868,6.15,6.15,0,0,0-4.665-1.948h-7.907Z" transform="translate(-135.381 -7.064)" fill="#5f6368"/>
  <path id="Path_74" data-name="Path 74" d="M282.615,46.78q5.228,0,8.253,2.794a9.9,9.9,0,0,1,3.022,7.661V72.713h-4.51V69.228h-.2a9.007,9.007,0,0,1-7.79,4.305,10.128,10.128,0,0,1-6.944-2.46,7.854,7.854,0,0,1-2.794-6.15,7.458,7.458,0,0,1,2.946-6.2,12.458,12.458,0,0,1,7.866-2.308,13.922,13.922,0,0,1,6.917,1.538V56.875a5.368,5.368,0,0,0-1.947-4.173,6.678,6.678,0,0,0-4.551-1.719,7.218,7.218,0,0,0-6.253,3.333L272.473,51.7Q275.9,46.78,282.615,46.78Zm-6.1,18.245a3.766,3.766,0,0,0,1.564,3.075,5.752,5.752,0,0,0,3.664,1.23,7.518,7.518,0,0,0,5.3-2.2,6.889,6.889,0,0,0,2.343-5.175,9.632,9.632,0,0,0-6.15-1.757,7.972,7.972,0,0,0-4.791,1.385A4.132,4.132,0,0,0,276.514,65.025Z" transform="translate(-193.431 -33.482)" fill="#5f6368"/>
  <path id="Path_75" data-name="Path 75" d="M375.342,49.58,359.6,85.763H354.73L360.573,73.1,350.22,49.58h5.125l7.483,18.04h.1l7.278-18.04Z" transform="translate(-249.429 -35.763)" fill="#5f6368"/>
  <path id="Path_76" data-name="Path 76" d="M92.249,63.288A25.125,25.125,0,0,0,91.886,59H72v8.121H83.39a9.761,9.761,0,0,1-4.211,6.408V78.8h6.8C89.956,75.131,92.249,69.7,92.249,63.288Z" transform="translate(-51.263 -42.114)" fill="#4285f4"/>
  <path id="Path_77" data-name="Path 77" d="M26.51,102.831a20.181,20.181,0,0,0,13.976-5.09l-6.8-5.272A12.789,12.789,0,0,1,14.672,85.78h-7v5.433A21.086,21.086,0,0,0,26.51,102.831Z" transform="translate(-5.425 -61.183)" fill="#34a853"/>
  <path id="Path_78" data-name="Path 78" d="M9.251,53.174a12.634,12.634,0,0,1,0-8.071V39.67h-7a21.086,21.086,0,0,0,0,18.937Z" transform="translate(-0.003 -28.309)" fill="#fbbc04"/>
  <path id="Path_79" data-name="Path 79" d="M26.511,8.343A11.448,11.448,0,0,1,34.6,11.506h0l6.018-6.018A20.26,20.26,0,0,0,26.511,0,21.086,21.086,0,0,0,7.671,11.614l7,5.433A12.612,12.612,0,0,1,26.511,8.343Z" transform="translate(-5.426 0.005)" fill="#ea4335"/>
</svg>
