<svg id="Group_2699" data-name="Group 2699" xmlns="http://www.w3.org/2000/svg" width="83.514" height="50" viewBox="0 0 83.514 50">
  <g id="g10305">
    <path id="path2268" d="M171.062,26.872a25.12,25.12,0,0,1-50.239.013v-.013a25.12,25.12,0,0,1,50.239-.013Z" transform="translate(-87.548 -1.872)" fill="#f90"/>
    <path id="path1350" d="M26.925,1.895A24.994,24.994,0,1,0,43.99,45.37h0a25.282,25.282,0,0,0,2.55-2.676H41.4a24.415,24.415,0,0,1-1.873-2.575H48.4a25,25,0,0,0,1.462-2.676h-11.8a24.579,24.579,0,0,1-1.05-2.626h13.9a24.983,24.983,0,0,0,.714-13.279H36.272a24.82,24.82,0,0,1,.717-2.626H50.9a24.924,24.924,0,0,0-1.083-2.676H38.057A23.943,23.943,0,0,1,39.5,13.609h8.869a25.053,25.053,0,0,0-1.95-2.676H41.473a23.253,23.253,0,0,1,2.52-2.525A25.1,25.1,0,0,0,27.087,1.895Z" transform="translate(-1.967 -1.888)" fill="#c00"/>
    <path id="use9412" d="M287.089,136.82a.835.835,0,0,1,.4.105.741.741,0,0,1,.3.3.814.814,0,0,1,0,.811.756.756,0,0,1-.3.3.821.821,0,0,1-.808,0,.768.768,0,0,1-.3-.3.815.815,0,0,1,0-.811.756.756,0,0,1,.3-.3.842.842,0,0,1,.4-.105m0,.135a.693.693,0,0,0-.333.088.622.622,0,0,0-.253.252.675.675,0,0,0-.092.338.689.689,0,0,0,.089.337.65.65,0,0,0,.252.251.68.68,0,0,0,.674,0,.642.642,0,0,0,.251-.251.687.687,0,0,0,.089-.337.678.678,0,0,0-.091-.338.618.618,0,0,0-.254-.252.68.68,0,0,0-.332-.088m-.356,1.127v-.874h.3a.7.7,0,0,1,.222.025.215.215,0,0,1,.11.084.226.226,0,0,1,.041.128.23.23,0,0,1-.069.167.269.269,0,0,1-.181.08.255.255,0,0,1,.075.047.965.965,0,0,1,.129.173l.106.171H287.3l-.077-.138a.706.706,0,0,0-.148-.2.184.184,0,0,0-.113-.03h-.083v.372h-.142m.141-.493h.171a.276.276,0,0,0,.167-.037.119.119,0,0,0,.045-.1.115.115,0,0,0-.021-.069.132.132,0,0,0-.06-.046.438.438,0,0,0-.141-.016h-.16v.264" transform="translate(-206.095 -98.76)" fill="#fcb340"/>
  </g>
  <g id="g16480" transform="translate(1.601 18.509)">
    <g id="g13802" transform="translate(0 0.529)">
      <path id="path13804" d="M123.267,70.172,123.6,67.9c-.183,0-.452.079-.689.079-.931,0-1.047-.5-.974-.861l.917-4.573h1.415l.292-2.581h-1.334L123.5,58.4h-2.79c-.059.059-1.579,8.795-1.579,9.859a1.984,1.984,0,0,0,2.131,2.265A7.023,7.023,0,0,0,123.267,70.172Z" transform="translate(-91.572 -57.008)" fill="#006"/>
      <path id="path13806" d="M136.706,69.038c0,3.78,2.495,4.677,4.62,4.677a8.041,8.041,0,0,0,2.991-.455l.471-2.58a9.69,9.69,0,0,1-3.005.674c-2.872,0-2.369-2.142-2.369-2.142l5.518.017a19.209,19.209,0,0,0,.351-2.439,3.666,3.666,0,0,0-3.9-3.926C138.7,62.866,136.706,65.763,136.706,69.038ZM141.4,65.26c1.509,0,1.231,1.7,1.231,1.834h-2.969C139.658,66.918,139.939,65.26,141.4,65.26Z" transform="translate(-104.201 -60.208)" fill="#006"/>
      <path id="path13808" d="M194.532,66.655l.479-2.916a6.441,6.441,0,0,1-2.213.658c-1.9,0-2.659-1.449-2.659-3.005,0-3.157,1.632-4.895,3.45-4.895a4.761,4.761,0,0,1,2.457.765l.437-2.833a5.32,5.32,0,0,0-2.681-.938c-4.18-.016-6.572,2.894-6.572,7.925,0,3.335,1.771,5.6,4.963,5.6A12.367,12.367,0,0,0,194.532,66.655Z" transform="translate(-140.489 -53.492)" fill="#006"/>
      <path id="path13810" d="M69.268,63.012a9.236,9.236,0,0,0-3.24.589l-.388,2.3a8.443,8.443,0,0,1,2.915-.471c1,0,1.725.112,1.725.921a1.714,1.714,0,0,1-.089.673s-.786-.066-1.15-.066c-2.611,0-4.743.987-4.743,3.963,0,2.345,1.594,2.883,2.582,2.883a3.3,3.3,0,0,0,2.677-1.195l-.022.989h2.355l1.051-7.365C72.941,63.112,70.215,63.012,69.268,63.012Zm.408,5.981c.051.45-.116,2.576-1.727,2.576a.974.974,0,0,1-1.046-1.01c0-.733.4-1.611,2.357-1.611C69.716,68.948,69.6,68.981,69.676,68.993Z" transform="translate(-52.198 -60.313)" fill="#006"/>
      <path id="path13812" d="M96.029,73.8c.6,0,4.046.153,4.046-3.4,0-3.323-3.188-2.666-3.188-4,0-.664.52-.873,1.47-.873.377,0,1.828.12,1.828.12l.337-2.362a12.476,12.476,0,0,0-2.468-.21c-1.979,0-3.987.79-3.987,3.492,0,3.062,3.349,2.755,3.349,4.045,0,.861-.936.932-1.657.932a8.743,8.743,0,0,1-2.375-.408l-.357,2.337A8.516,8.516,0,0,0,96.029,73.8Z" transform="translate(-72.83 -60.355)" fill="#006"/>
      <path id="path13814" d="M271.7,55.455l-.483,3.6a3.536,3.536,0,0,0-2.583-1.391c-2.965,0-4.493,2.955-4.493,6.349,0,2.191,1.09,4.34,3.317,4.34a3.344,3.344,0,0,0,2.49-1.117l-.118.954h2.6l2.043-12.718Zm-1.149,7c0,1.413-.7,3.3-2.149,3.3-.963,0-1.414-.808-1.414-2.076,0-2.074.931-3.442,2.107-3.442C270.058,60.24,270.552,60.9,270.552,62.458Z" transform="translate(-195.734 -54.898)" fill="#006"/>
      <path id="path13816" d="M24.023,68.153l1.628-9.6.239,9.6h1.842l3.437-9.6-1.523,9.6h2.738l2.108-12.735-4.349-.033-2.587,7.8-.071-7.764H23.5L21.362,68.153Z" transform="translate(-21.362 -54.848)" fill="#006"/>
      <path id="path13818" d="M169.159,71.942c.778-4.427,1.056-7.923,3.326-7.2a15.43,15.43,0,0,1,1.458-3.929s-.112-.167-.814-.167c-1.2,0-2.8,2.431-2.8,2.431l.239-1.5H168.08l-1.668,10.366h2.747Z" transform="translate(-125.532 -58.618)" fill="#006"/>
      <g id="use14699" transform="translate(54.63 2.699)">
        <path id="path13810_1_" d="M-625.112,63.012a9.237,9.237,0,0,0-3.24.589l-.388,2.3a8.448,8.448,0,0,1,2.915-.471c1,0,1.724.112,1.724.921a1.721,1.721,0,0,1-.089.673s-.786-.066-1.15-.066c-2.611,0-4.743.987-4.743,3.963,0,2.345,1.594,2.883,2.582,2.883a3.3,3.3,0,0,0,2.677-1.195l-.022.989h2.356l1.05-7.365C-621.44,63.112-624.166,63.012-625.112,63.012Zm.407,5.981c.051.45-.117,2.576-1.727,2.576a.974.974,0,0,1-1.047-1.01c0-.733.4-1.611,2.357-1.611C-624.665,68.948-624.782,68.981-624.705,68.993Z" transform="translate(630.083 -63.012)" fill="#006"/>
      </g>
      <path id="use14701" d="M248.322,74.286c.428-3.257,1.219-7.829,3.326-7.2.326-1.713.012-1.709-.69-1.709a12.5,12.5,0,0,0-1.464.044l.239-1.5h-2.491l-1.668,10.367h2.747Z" transform="translate(-182.431 -60.963)" fill="#006"/>
    </g>
    <g id="g10289" transform="translate(0.78)">
      <path id="path4157" d="M111.981,83.3l.335-2.273c-.183,0-.452.078-.689.078-.931,0-1.034-.495-.974-.861l.752-4.639h1.415l.342-2.515h-1.334l.272-1.564h-2.675c-.059.059-1.579,8.8-1.579,9.859a1.985,1.985,0,0,0,2.131,2.265A7.035,7.035,0,0,0,111.981,83.3Z" transform="translate(-80.367 -70.422)" fill="#fff"/>
      <path id="path4155" d="M125.423,82.169c0,3.78,2.495,4.678,4.62,4.678a6.807,6.807,0,0,0,2.825-.439l.471-2.58a8.328,8.328,0,0,1-2.84.657c-2.872,0-2.369-2.141-2.369-2.141h5.435a19.235,19.235,0,0,0,.351-2.439A3.586,3.586,0,0,0,130.1,76C127.414,76,125.423,78.894,125.423,82.169Zm4.69-3.778c1.509,0,1.231,1.7,1.231,1.833h-2.969C128.375,80.049,128.655,78.391,130.113,78.391Z" transform="translate(-92.998 -73.621)" fill="#fff"/>
      <path id="path4151" d="M183.628,80.5l.479-2.916a6.434,6.434,0,0,1-2.213.658c-1.9,0-2.658-1.449-2.658-3.005,0-3.157,1.632-4.894,3.45-4.894a4.763,4.763,0,0,1,2.457.765l.437-2.833a9.6,9.6,0,0,0-3.012-.656c-3.088,0-6.091,2.678-6.091,7.709,0,3.336,1.622,5.539,4.814,5.539A12.333,12.333,0,0,0,183.628,80.5Z" transform="translate(-129.664 -67.618)" fill="#fff"/>
      <path id="path4149" d="M57.985,76.143a9.239,9.239,0,0,0-3.24.589l-.388,2.3a8.443,8.443,0,0,1,2.914-.471c1,0,1.725.112,1.725.921a1.71,1.71,0,0,1-.089.673s-.786-.066-1.149-.066c-2.313,0-4.743.987-4.743,3.963,0,2.345,1.594,2.883,2.582,2.883a3.48,3.48,0,0,0,2.744-1.228l-.088,1.022h2.355l1.051-7.366C61.657,76.244,58.932,76.143,57.985,76.143Zm.573,6c.051.45-.282,2.559-1.892,2.559a.974.974,0,0,1-1.047-1.01c0-.732.4-1.611,2.358-1.611A1.7,1.7,0,0,1,58.558,82.14Z" transform="translate(-40.996 -73.726)" fill="#fff"/>
      <path id="path4145" d="M84.746,86.928c.6,0,4.046.153,4.046-3.4,0-3.322-3.188-2.666-3.188-4,0-.665.52-.874,1.469-.874.377,0,1.828.12,1.828.12l.337-2.362a12.477,12.477,0,0,0-2.468-.21c-1.979,0-3.987.79-3.987,3.492,0,3.062,3.349,2.755,3.349,4.045,0,.861-.936.931-1.656.931a8.732,8.732,0,0,1-2.375-.408L81.745,86.6A8.492,8.492,0,0,0,84.746,86.928Z" transform="translate(-61.628 -73.768)" fill="#fff"/>
      <path id="path4139" d="M260.511,68.657l-.577,3.58a3.534,3.534,0,0,0-2.583-1.391c-2.451,0-4.493,2.955-4.493,6.35,0,2.191,1.089,4.339,3.317,4.339a3.344,3.344,0,0,0,2.49-1.117l-.118.954h2.6l2.043-12.719Zm-1.242,6.98c0,1.413-.7,3.3-2.149,3.3-.963,0-1.414-.808-1.414-2.076,0-2.074.931-3.442,2.106-3.442C258.775,73.419,259.269,74.08,259.269,75.637Z" transform="translate(-184.533 -68.36)" fill="#fff"/>
      <path id="path4133" d="M12.949,81.368l1.628-9.6.239,9.6h1.843l3.437-9.6-1.523,9.6h2.738L23.42,68.632H19.186l-2.637,7.814-.137-7.814h-3.9L10.37,81.368Z" transform="translate(-10.37 -68.345)" fill="#fff"/>
      <path id="path4131" d="M157.877,87.079c.779-4.427.923-8.022,2.781-7.364a10.291,10.291,0,0,1,.994-3.1,2.82,2.82,0,0,0-.516-.035c-1.2,0-2.085,1.636-2.085,1.636l.238-1.5H156.8L155.13,87.079Z" transform="translate(-114.326 -74.039)" fill="#fff"/>
      <g id="use8523" transform="translate(55.117 2.417)">
        <path id="path4149_1_" d="M-636.093,76.143a9.238,9.238,0,0,0-3.24.589l-.388,2.3a8.443,8.443,0,0,1,2.915-.471c1,0,1.724.112,1.724.921a1.721,1.721,0,0,1-.089.673s-.786-.066-1.15-.066c-2.313,0-4.743.987-4.743,3.963,0,2.345,1.594,2.883,2.582,2.883a3.478,3.478,0,0,0,2.743-1.228l-.088,1.022h2.355l1.05-7.366C-632.42,76.244-635.146,76.143-636.093,76.143Zm.574,6c.051.45-.282,2.559-1.893,2.559a.974.974,0,0,1-1.046-1.01c0-.732.4-1.611,2.357-1.611A1.715,1.715,0,0,1-635.519,82.14Z" transform="translate(641.063 -76.143)" fill="#fff"/>
      </g>
      <g id="use8525" transform="translate(63.074 2.54)">
        <path id="path4131_1_" d="M-205.2,87.079c.779-4.427.923-8.022,2.78-7.364a10.313,10.313,0,0,1,.995-3.1,2.82,2.82,0,0,0-.516-.035c-1.2,0-2.085,1.636-2.085,1.636l.238-1.5h-2.49l-1.668,10.367Z" transform="translate(207.95 -76.579)" fill="#fff"/>
      </g>
      <path id="text9407" d="M287.049,107.975a.82.82,0,0,1,.4.106.735.735,0,0,1,.3.3.813.813,0,0,1,0,.81.752.752,0,0,1-.3.3.82.82,0,0,1-.809,0,.76.76,0,0,1-.3-.3.812.812,0,0,1,0-.81.746.746,0,0,1,.3-.3.831.831,0,0,1,.4-.106m0,.134a.688.688,0,0,0-.333.089.62.62,0,0,0-.253.251.678.678,0,0,0,0,.675.646.646,0,0,0,.253.251.684.684,0,0,0,.674,0,.644.644,0,0,0,.251-.251.679.679,0,0,0,0-.675.613.613,0,0,0-.253-.251.683.683,0,0,0-.332-.089m-.356,1.127v-.874h.3a.708.708,0,0,1,.223.025.214.214,0,0,1,.11.084.222.222,0,0,1,.041.128.232.232,0,0,1-.069.167.265.265,0,0,1-.181.079.27.27,0,0,1,.074.046,1.041,1.041,0,0,1,.129.173l.107.171h-.173l-.077-.138a.705.705,0,0,0-.148-.2.181.181,0,0,0-.113-.03h-.083v.372h-.142m.141-.492h.171a.273.273,0,0,0,.167-.037.119.119,0,0,0,.045-.1.114.114,0,0,0-.021-.069.13.13,0,0,0-.06-.047.444.444,0,0,0-.141-.015h-.16v.264" transform="translate(-208.449 -96.534)" fill="#fff"/>
    </g>
  </g>
</svg>
