<svg xmlns="http://www.w3.org/2000/svg" width="204.762" height="50" viewBox="0 0 204.762 50">
  <g id="PayPal" transform="translate(0)">
    <path id="Path_18" data-name="Path 18" d="M53.224,6.749H41.839a1.581,1.581,0,0,0-1.563,1.335l-4.6,29.194a.949.949,0,0,0,.939,1.1h5.435a1.581,1.581,0,0,0,1.563-1.337l1.242-7.874a1.581,1.581,0,0,1,1.561-1.337h3.6c7.5,0,11.828-3.629,12.958-10.821.509-3.146.022-5.618-1.452-7.35-1.618-1.9-4.488-2.907-8.3-2.907Zm1.313,10.663C53.915,21.5,50.794,21.5,47.776,21.5H46.058l1.205-7.629a.949.949,0,0,1,.937-.8h.787c2.056,0,4,0,5,1.172a3.794,3.794,0,0,1,.553,3.173Zm32.718-.132H81.8a.949.949,0,0,0-.937.8l-.241,1.525-.381-.553c-1.18-1.713-3.812-2.286-6.439-2.286-6.025,0-11.17,4.563-12.172,10.964a10.291,10.291,0,0,0,2.031,8.375,8.53,8.53,0,0,0,6.867,2.773,10.432,10.432,0,0,0,7.546-3.121l-.243,1.515a.949.949,0,0,0,.936,1.1H83.68a1.582,1.582,0,0,0,1.563-1.337l2.947-18.66a.946.946,0,0,0-.934-1.1Zm-7.6,10.611A6.076,6.076,0,0,1,73.506,33.1a4.6,4.6,0,0,1-3.661-1.47,4.635,4.635,0,0,1-.856-3.831,6.1,6.1,0,0,1,6.11-5.247,4.6,4.6,0,0,1,3.636,1.485A4.719,4.719,0,0,1,79.657,27.891ZM116.292,17.28h-5.479a1.588,1.588,0,0,0-1.31.694L101.947,29.1l-3.2-10.7a1.586,1.586,0,0,0-1.518-1.129H91.842a.949.949,0,0,0-.9,1.255l6.035,17.709L91.3,44.253a.949.949,0,0,0,.774,1.5h5.472a1.58,1.58,0,0,0,1.3-.679l18.222-26.3a.949.949,0,0,0-.779-1.49Z" transform="translate(23.238 4.248)" fill="#253b80"/>
    <path id="Path_19" data-name="Path 19" d="M102.005,6.75H90.619a1.582,1.582,0,0,0-1.562,1.335l-4.6,29.194a.947.947,0,0,0,.936,1.1h5.843a1.107,1.107,0,0,0,1.092-.936l1.307-8.275a1.581,1.581,0,0,1,1.561-1.337h3.6c7.5,0,11.828-3.629,12.96-10.821.511-3.146.02-5.618-1.453-7.35-1.616-1.9-4.485-2.907-8.3-2.907Zm1.313,10.663C102.7,21.5,99.577,21.5,96.557,21.5H94.84l1.207-7.629a.946.946,0,0,1,.936-.8h.787c2.054,0,4,0,5,1.172a3.8,3.8,0,0,1,.551,3.173Zm32.717-.132h-5.449a.944.944,0,0,0-.936.8l-.241,1.525-.383-.553c-1.18-1.713-3.811-2.286-6.437-2.286-6.025,0-11.169,4.563-12.171,10.964a10.3,10.3,0,0,0,2.029,8.375,8.535,8.535,0,0,0,6.867,2.773,10.432,10.432,0,0,0,7.546-3.121l-.243,1.515a.949.949,0,0,0,.939,1.1h4.909a1.582,1.582,0,0,0,1.562-1.337l2.948-18.66a.951.951,0,0,0-.941-1.1Zm-7.6,10.611a6.074,6.074,0,0,1-6.151,5.206,4.6,4.6,0,0,1-3.661-1.47,4.647,4.647,0,0,1-.856-3.831,6.105,6.105,0,0,1,6.11-5.247,4.6,4.6,0,0,1,3.636,1.485A4.7,4.7,0,0,1,128.436,27.892ZM142.463,7.55,137.79,37.279a.947.947,0,0,0,.936,1.1h4.7a1.579,1.579,0,0,0,1.563-1.337l4.608-29.192a.949.949,0,0,0-.936-1.1H143.4A.95.95,0,0,0,142.463,7.55Z" transform="translate(55.155 4.248)" fill="#179bd7"/>
    <path id="Path_20" data-name="Path 20" d="M11.391,47.615l.871-5.5-1.939-.045H1.061L7.5,1.468a.525.525,0,0,1,.523-.444H23.635c5.184,0,8.761,1.073,10.629,3.192a7.265,7.265,0,0,1,1.7,3.175,11.406,11.406,0,0,1,.012,4.379l-.02.128v1.12l.876.494a6.139,6.139,0,0,1,1.773,1.345,6.247,6.247,0,0,1,1.438,3.21,13.51,13.51,0,0,1-.2,4.657,16.348,16.348,0,0,1-1.918,5.272,10.864,10.864,0,0,1-3.038,3.313,12.355,12.355,0,0,1-4.092,1.837,20.5,20.5,0,0,1-5.114.588H24.464a3.7,3.7,0,0,0-2.376.87,3.656,3.656,0,0,0-1.239,2.2l-.092.5-1.538,9.7-.07.356a.306.306,0,0,1-.1.207.259.259,0,0,1-.16.058Z" transform="translate(0.705 0.681)" fill="#253b80"/>
    <path id="Path_21" data-name="Path 21" d="M34.255,7.667q-.07.447-.16.916c-2.059,10.573-9.1,14.225-18.1,14.225H11.412a2.225,2.225,0,0,0-2.2,1.884L6.867,39.568,6.2,43.785A1.172,1.172,0,0,0,7.36,45.14h8.125a1.955,1.955,0,0,0,1.931-1.648l.08-.413,1.53-9.709.1-.533a1.954,1.954,0,0,1,1.931-1.651h1.215c7.872,0,14.035-3.2,15.836-12.445.752-3.864.363-7.09-1.628-9.359a7.769,7.769,0,0,0-2.224-1.715Z" transform="translate(4.113 4.859)" fill="#179bd7"/>
    <path id="Path_22" data-name="Path 22" d="M30.893,7.446a16.243,16.243,0,0,0-2-.444,25.443,25.443,0,0,0-4.039-.295H12.613a1.951,1.951,0,0,0-1.929,1.651L8.08,24.849l-.075.481a2.224,2.224,0,0,1,2.2-1.884h4.581c9,0,16.043-3.654,18.1-14.225.062-.313.113-.618.16-.916a10.977,10.977,0,0,0-1.693-.714q-.229-.076-.461-.145Z" transform="translate(5.321 4.374)" fill="#222d65"/>
    <path id="Path_23" data-name="Path 23" d="M16,12.748a1.943,1.943,0,0,1,1.929-1.641H30.173a25.577,25.577,0,0,1,4.039.293,16.316,16.316,0,0,1,2.465.585,11.175,11.175,0,0,1,1.693.71c.613-3.886,0-6.532-2.118-8.928C33.924,1.129,29.72,0,24.341,0H8.726A2.228,2.228,0,0,0,6.521,1.876L.017,42.883a1.33,1.33,0,0,0,.3,1.075,1.345,1.345,0,0,0,1.019.468h9.64L13.4,29.151Z" transform="translate(0 0)" fill="#253b80"/>
  </g>
</svg>
