<svg xmlns="http://www.w3.org/2000/svg" xmlns:xlink="http://www.w3.org/1999/xlink" width="154.835" height="50" viewBox="0 0 154.835 50">
  <defs>
    <clipPath id="clip-path">
      <path id="path10273" d="M1884.9-486.218c-.088,6.965,6.208,10.852,10.949,13.163,4.872,2.371,6.509,3.892,6.491,6.012-.037,3.245-3.887,4.677-7.49,4.733A26.139,26.139,0,0,1,1882-465.365l-2.264,10.6c2.915,1.344,8.313,2.515,13.911,2.566,13.139,0,21.736-6.486,21.782-16.543.051-12.763-17.653-13.469-17.532-19.174.041-1.73,1.692-3.576,5.309-4.045a23.55,23.55,0,0,1,12.335,2.162l2.2-10.252a33.535,33.535,0,0,0-11.708-2.148c-12.367,0-21.066,6.574-21.136,15.985m53.976-15.1a5.7,5.7,0,0,0-5.324,3.547l-18.77,44.816h13.13l2.613-7.22h16.046l1.516,7.22h11.572l-10.1-48.363h-10.684m1.836,13.065,3.79,18.161h-10.378l6.588-18.161m-71.731-13.065-10.35,48.363h12.512l10.345-48.363h-12.507m-18.51,0L1837.447-468.4l-5.268-27.99a5.833,5.833,0,0,0-5.77-4.928H1805.12l-.3,1.4a52.08,52.08,0,0,1,12.344,4.115c1.841,1,2.367,1.874,2.971,4.25l9.978,38.595h13.223l20.272-48.363h-13.14" transform="translate(-1804.822 502.203)"/>
    </clipPath>
    <linearGradient id="linear-gradient" y1="0.373" x2="0.008" y2="0.373" gradientUnits="objectBoundingBox">
      <stop offset="0" stop-color="#222357"/>
      <stop offset="1" stop-color="#254aa5"/>
    </linearGradient>
  </defs>
  <g id="layer1" transform="translate(0)">
    <g id="g10267" transform="translate(0 0)">
      <g id="g10269" transform="translate(0 0)" clip-path="url(#clip-path)">
        <g id="g10275" transform="translate(-16.214 -50.212)">
          <path id="path10283" d="M0-124.521l152.559-56.184,34.706,94.242L34.708-30.279" transform="translate(0 180.705)" fill="url(#linear-gradient)"/>
        </g>
      </g>
    </g>
  </g>
</svg>
