<svg xmlns="http://www.w3.org/2000/svg" width="129.966" height="53.363" viewBox="0 0 129.966 53.363">
  <path id="XMLID_34_" d="M23.806,6.88a7.984,7.984,0,0,1-6.4,3.021,9.052,9.052,0,0,1,2.285-6.626A9.543,9.543,0,0,1,26.04,0a9.639,9.639,0,0,1-2.234,6.88m2.209,3.5c-3.529-.2-6.55,2.006-8.225,2.006-1.7,0-4.265-1.9-7.058-1.853a10.428,10.428,0,0,0-8.86,5.382C-1.936,22.467.882,32.165,4.563,37.5c1.8,2.64,3.96,5.534,6.8,5.433,2.691-.1,3.757-1.752,7.007-1.752,3.275,0,4.214,1.752,7.058,1.7,2.945-.051,4.8-2.64,6.6-5.28a23.156,23.156,0,0,0,2.945-6.067,9.565,9.565,0,0,1-5.737-8.708,9.768,9.768,0,0,1,4.646-8.175,10.061,10.061,0,0,0-7.87-4.265M46.4,3.021V42.6h6.144V29.068h8.5c7.768,0,13.227-5.331,13.227-13.049s-5.357-13-13.023-13H46.4ZM52.544,8.2h7.083C64.958,8.2,68,11.043,68,16.045s-3.046,7.87-8.4,7.87H52.544ZM85.5,42.9a10.164,10.164,0,0,0,9.063-5.052h.127V42.6h5.687V22.9c0-5.712-4.57-9.393-11.6-9.393-6.524,0-11.348,3.732-11.526,8.86H82.78c.457-2.437,2.716-4.037,5.814-4.037,3.757,0,5.864,1.752,5.864,4.976v2.183l-7.667.457C79.657,26.377,75.8,29.3,75.8,34.374,75.8,39.5,79.784,42.9,85.5,42.9Zm1.65-4.7c-3.275,0-5.357-1.574-5.357-3.986,0-2.488,2.006-3.935,5.839-4.163l6.829-.432v2.234C94.458,35.567,91.31,38.207,87.146,38.207Zm20.817,15.156c5.991,0,8.809-2.285,11.272-9.215l10.789-30.261H123.78l-7.235,23.381h-.127l-7.235-23.381h-6.423L113.168,42.7l-.559,1.752c-.939,2.97-2.463,4.113-5.179,4.113-.482,0-1.422-.051-1.8-.1v4.747A16.922,16.922,0,0,0,107.964,53.363Z" transform="translate(-0.059)" fill="#d2d2d2"/>
</svg>
