<svg xmlns="http://www.w3.org/2000/svg" width="84" height="84" viewBox="0 0 84 84">
  <g id="Group_2704" data-name="Group 2704" transform="translate(-757 -2740)">
    <circle id="Ellipse_7" data-name="Ellipse 7" cx="42" cy="42" r="42" transform="translate(757 2740)" fill="#4fbde6"/>
    <g id="_010101ff" data-name="#010101ff" transform="translate(738.901 2721.061)">
      <path id="Path_39" data-name="Path 39" d="M45.783,43.185a12.332,12.332,0,0,1,7.259-2.415q5.7-.006,11.394,0a12.408,12.408,0,0,1,12.3,9.78c1.292.21,2.689-.047,4.016.126a2.5,2.5,0,0,1,1.994,2.316c.024.848.022,1.7,0,2.548a.8.8,0,0,1-.848.846c-1.088.026-2.177,0-3.265.01l-.006.683a10.514,10.514,0,0,1,5.712,5.455A10.288,10.288,0,0,1,69.459,75.416a10.748,10.748,0,0,1-3.325-3.357q-10.639-.009-21.275,0a3.435,3.435,0,0,1-1.688,2.862c-1.06.628-2.332.4-3.5.42a3.3,3.3,0,0,1-3.074-3.3c0-3.337-.01-6.674.006-10.012a3.373,3.373,0,0,1,2.468-3.078q0-1.278,0-2.554c-1.1-.016-2.195.022-3.29-.016a.793.793,0,0,1-.793-.824c-.016-.8-.018-1.6.008-2.395a2.731,2.731,0,0,1,2.526-2.521c1.158-.039,2.32,0,3.479-.018a12.449,12.449,0,0,1,4.788-7.436m-1.131,3.374a10.974,10.974,0,0,0-2.261,7.359q16.475.006,32.952,0a10.971,10.971,0,0,0-2.56-7.725,10.692,10.692,0,0,0-7.972-3.775c-3.926-.014-7.852-.008-11.778,0a10.73,10.73,0,0,0-8.38,4.14m-8.013,6.69c-.035.5-.012,1-.014,1.5,1.093.01,2.187-.02,3.278.01a.837.837,0,0,1,.809.98c-.014,1.38.039,2.764-.027,4.142-.077.55-.677.62-1.119.687a1.605,1.605,0,0,0-1.321,1.649q-.009,4.9,0,9.8a1.649,1.649,0,0,0,1.341,1.655,17.173,17.173,0,0,0,2.179.01,1.749,1.749,0,0,0,1.462-1.616,8.718,8.718,0,0,1-2.091-.116.832.832,0,0,1,.516-1.541c7.888-.014,15.775,0,23.664-.01A10.314,10.314,0,0,1,76.984,56.59c.037-.614-.206-1.6.6-1.81,1.172-.082,2.35-.014,3.526-.033-.008-.593.029-1.19-.026-1.78a.815.815,0,0,0-.785-.685c-1.1-.035-2.2,0-3.306-.016-.027.891.041,1.784-.031,2.674a.857.857,0,0,1-.944.628q-17.182,0-34.363,0a.818.818,0,0,1-.915-.673c-.057-.872.012-1.745,0-2.619-1,0-2-.014-3,0a1.091,1.091,0,0,0-1.1.976m37.039,4.882a8.655,8.655,0,0,0,.942,17.214,8.655,8.655,0,1,0-.942-17.214Z" fill="#fff"/>
      <path id="Path_40" data-name="Path 40" d="M156.064,61.66a.815.815,0,0,1,1.209.76c.018.338-.269.557-.5.752q-3.472,2.7-6.939,5.4c-.261.173-.522.461-.866.391a.813.813,0,0,1-.728-1.035c.079-.32.381-.493.614-.691C151.268,65.389,153.634,63.481,156.064,61.66Z" transform="translate(-91.006 -16.698)" fill="#fff"/>
      <path id="Path_41" data-name="Path 41" d="M123.452,74.222a.815.815,0,0,1,1.125.691c.075.444-.322.732-.62.974-1.284,1-2.532,2.045-3.822,3.035a.812.812,0,0,1-1.243-.3.885.885,0,0,1,.383-1.109C120.68,76.433,122.013,75.253,123.452,74.222Z" transform="translate(-67.382 -26.833)" fill="#fff"/>
      <path id="Path_42" data-name="Path 42" d="M69.688,149.873c.275-.179.622-.084.929-.114,1.765.014,3.53-.014,5.294.01.495-.012.726.485.983.819.842,1.25,1.749,2.456,2.572,3.718a.8.8,0,0,1-.6,1.205c-1.771.053-3.543,0-5.314.024-.416-.016-.954.067-1.213-.346-.97-1.347-1.914-2.715-2.858-4.081a.823.823,0,0,1,.208-1.235m2.006,1.531c.569.83,1.156,1.647,1.726,2.477q1.879.006,3.757,0c-.569-.83-1.154-1.647-1.727-2.473C74.2,151.408,72.947,151.412,71.694,151.4Z" transform="translate(-27.582 -87.596)" fill="#fff"/>
      <path id="Path_43" data-name="Path 43" d="M223.816,150.075a.813.813,0,0,1,1.335.084.834.834,0,0,1-.163,1.068c-1.8,2.069-3.614,4.124-5.41,6.2-.249.269-.53.636-.944.579-.459,0-.689-.453-.942-.762-.716-.991-1.49-1.943-2.183-2.95a.812.812,0,0,1,.785-1.221c.336,0,.544.291.73.526q.854,1.14,1.71,2.279C220.43,153.943,222.116,152,223.816,150.075Z" transform="translate(-144.995 -87.602)" fill="#fff"/>
      <path id="Path_44" data-name="Path 44" d="M135.982,166.713a1.583,1.583,0,0,1,.929-.163c2.348.02,4.7-.02,7.045.016a.817.817,0,0,1,.528,1.38c-.391.4-1.009.208-1.506.259-2.214-.024-4.431.031-6.643-.027A.821.821,0,0,1,135.982,166.713Z" transform="translate(-80.92 -101.091)" fill="#fff"/>
    </g>
  </g>
</svg>
