<svg xmlns="http://www.w3.org/2000/svg" width="84" height="84" viewBox="0 0 84 84">
  <g id="Group_2701" data-name="Group 2701" transform="translate(-1070 -1363)">
    <circle id="Ellipse_5" data-name="Ellipse 5" cx="42" cy="42" r="42" transform="translate(1070 1363)" fill="#4fbde6"/>
    <g id="_010101ff" data-name="#010101ff" transform="translate(1051.415 1317.001)">
      <path id="Path_16" data-name="Path 16" d="M53.1,65.662a3.664,3.664,0,0,1,3.016.278c1.358.618,2.514,1.636,3.935,2.126a2.314,2.314,0,0,0,1.831-.32c1.417-.712,2.67-1.778,4.226-2.194a3.047,3.047,0,0,1,3.02.834c1.353,1.41,1.662,3.434,2.667,5.056a1.707,1.707,0,0,0,1.126.8c1.787.425,3.712.145,5.427.894a3.048,3.048,0,0,1,1.855,2.507c.2,1.9-.71,3.683-.825,5.556a1.706,1.706,0,0,0,.484,1.329c1.22,1.362,2.928,2.282,3.85,3.905a3.133,3.133,0,0,1,.006,3.123c-.939,1.678-2.728,2.6-3.946,4.031a2.649,2.649,0,0,0-.243,2.354c.3,1.511.874,3.026.65,4.59a3.04,3.04,0,0,1-1.84,2.343c-1.712.745-3.633.464-5.418.889a1.764,1.764,0,0,0-1.2.9c-.926,1.575-1.263,3.486-2.518,4.864a3.054,3.054,0,0,1-3.086.917c-1.789-.464-3.167-1.807-4.868-2.47a1.921,1.921,0,0,0-1.559.085c-1.644.716-3.016,2.013-4.8,2.422a3.075,3.075,0,0,1-3.033-1.053c-1.237-1.441-1.542-3.4-2.556-4.971a2.03,2.03,0,0,0-1.469-.791c-1.69-.285-3.486-.11-5.081-.828a3.033,3.033,0,0,1-1.8-2.475c-.2-1.9.709-3.686.825-5.562a1.734,1.734,0,0,0-.475-1.323c-1.217-1.366-2.93-2.28-3.856-3.9a3.144,3.144,0,0,1,.013-3.177c.95-1.645,2.713-2.553,3.918-3.972a1.787,1.787,0,0,0,.386-1.436c-.175-1.8-1-3.519-.813-5.35a3.035,3.035,0,0,1,1.8-2.481c1.7-.777,3.628-.5,5.413-.9a1.77,1.77,0,0,0,1.205-.821c.863-1.406,1.207-3.077,2.157-4.437A3.529,3.529,0,0,1,53.1,65.662M66.56,67.685c-2.061.714-3.69,2.588-5.98,2.645-2.083-.066-3.653-1.625-5.459-2.457-.48-.223-1.156-.447-1.551.05a13.09,13.09,0,0,0-1.592,3.189A5.319,5.319,0,0,1,49.716,74c-1.85.891-4,.451-5.912,1.071a1.014,1.014,0,0,0-.7,1.136c.092,2.129,1.3,4.218.664,6.362-.777,2.037-2.936,2.98-4.229,4.62a1.127,1.127,0,0,0-.147,1.4c1.25,1.8,3.58,2.709,4.38,4.842.633,2.146-.578,4.233-.67,6.366a1.012,1.012,0,0,0,.679,1.117c1.739.582,3.65.254,5.389.856A3.564,3.564,0,0,1,51,103.1a31.084,31.084,0,0,1,2.03,4.191,2.873,2.873,0,0,0,.769.977c.572.287,1.187-.1,1.708-.339,1.688-.876,3.267-2.321,5.28-2.258,2.1.175,3.653,1.8,5.536,2.562a1.048,1.048,0,0,0,1.367-.26c.882-1.174,1.207-2.647,1.9-3.928a4.226,4.226,0,0,1,2.118-2.161c1.769-.729,3.749-.388,5.562-.918a1,1,0,0,0,.8-.955c.009-2.209-1.325-4.354-.664-6.57.78-2.1,3.037-3.018,4.308-4.745a1.094,1.094,0,0,0,0-1.393c-1.266-1.728-3.524-2.648-4.31-4.741-.637-2.14.576-4.224.666-6.35a1.025,1.025,0,0,0-.674-1.136c-2.113-.7-4.612-.057-6.506-1.436-1.7-1.408-1.9-3.786-3.12-5.521A.982.982,0,0,0,66.56,67.685Z" fill="#fff"/>
      <path id="Path_17" data-name="Path 17" d="M120.906,146.2a3.565,3.565,0,1,1,5.037,5.047q-4.329,4.323-8.65,8.657a6.229,6.229,0,0,1-1.931,1.557,3.58,3.58,0,0,1-3.852-.707c-1.85-1.833-3.686-3.681-5.529-5.521a3.567,3.567,0,1,1,4.949-5.137c1.016,1.009,2.03,2.017,3.033,3.037,2.323-2.3,4.625-4.625,6.942-6.933m2.234,1.136a2.2,2.2,0,0,0-1.073.766q-3.641,3.644-7.284,7.285a1.1,1.1,0,0,1-1.61.015c-1.259-1.246-2.5-2.512-3.762-3.755a1.39,1.39,0,0,0-1.986,1.945c1.833,1.857,3.688,3.692,5.532,5.54a1.438,1.438,0,0,0,2.063-.031q4.654-4.635,9.292-9.291a1.459,1.459,0,0,0,.458-1.553A1.4,1.4,0,0,0,123.14,147.331Z" transform="translate(-55.351 -65.015)" fill="#fff"/>
    </g>
  </g>
</svg>
