<svg xmlns="http://www.w3.org/2000/svg" width="74.731" height="60.863" viewBox="0 0 74.731 60.863">
  <g id="_000000ff" data-name="#000000ff" transform="translate(-34.995 -36.74)">
    <path id="Path_8275" data-name="Path 8275" d="M84.67,40.064c1.617-1.524,3.471-3.065,5.774-3.275a7.789,7.789,0,0,1,6.04,2.169c3.76,3.339,7.479,6.728,11.233,10.077a5.818,5.818,0,0,1,1.591,1.906,6.823,6.823,0,0,1,.4,3.077q0,18.986.012,37.966a4.408,4.408,0,0,1-4.4,4.463q-14,.009-28,.018a6.634,6.634,0,0,1-2.023-.35,7.106,7.106,0,0,1-2.344.353c-5.357-.026-10.713.032-16.07-.032-3.71-.076-7.228-1.369-10.658-2.668a5.159,5.159,0,0,1-.315,2.44,2.664,2.664,0,0,1-2.44,1.389c-1.953,0-3.9.015-5.853-.006A2.627,2.627,0,0,1,35,94.914q-.009-12.864,0-25.735a2.619,2.619,0,0,1,2.6-2.572c2.058-.009,4.119-.026,6.177.009a2.752,2.752,0,0,1,2.487,2.925,3.456,3.456,0,0,0,2.572-1.068c1.1-1.343,1.874-2.963,3.214-4.1,1.6-1.346,3.553-2.236,5.027-3.736a7.583,7.583,0,0,0,1.74-3.258c.543-1.862.911-3.766,1.369-5.646a1.163,1.163,0,0,1,1.375-.984,6.416,6.416,0,0,1,4.764,4.271c1.141,3.6.33,7.52-1.156,10.894,2.5,0,5.009-.012,7.514,0,.035-4.355,0-8.711.012-13.066a4.348,4.348,0,0,1,1.53-3.386q5.219-4.7,10.444-9.4m1.5,1.789c-3.482,3.141-6.98,6.27-10.456,9.417a1.952,1.952,0,0,0-.68,1.588c-.015,4.349,0,8.7,0,13.048a6.389,6.389,0,0,1,3.941.765,4.777,4.777,0,0,1,1.287,6.676,4.738,4.738,0,0,1,.514,8.354,4.99,4.99,0,0,1,1.019,3.555,4.8,4.8,0,0,1-4.268,4.163,4.981,4.981,0,0,1,0,4.711c9.268-.018,18.536,0,27.8-.023a2.044,2.044,0,0,0,2.046-2.1c.015-12.952-.009-25.9,0-38.853a2.2,2.2,0,0,0-.709-1.909q-5.762-5.193-11.536-10.369a5.735,5.735,0,0,0-4.4-1.766c-1.859.175-3.246,1.562-4.565,2.747M62.211,53.4c-.663,2.493-.992,5.149-2.327,7.4-1.372,2.248-3.777,3.491-5.856,4.971-1.784,1.267-2.452,3.532-4.136,4.9a5.954,5.954,0,0,1-3.652,1.188c-.035,6.48-.006,12.961-.015,19.441,3.477,1.208,6.939,2.732,10.684,2.8,5.441.061,10.888.012,16.332.026a2.4,2.4,0,0,0,2.548-2.131,2.357,2.357,0,0,0-2.248-2.578c-2.052-.038-4.107.015-6.159-.015a1.217,1.217,0,0,1-1.229-.671,1.155,1.155,0,0,1,.963-1.638c3.3-.055,6.612,0,9.916-.023a2.359,2.359,0,1,0,0-4.714c-3.223-.018-6.445.012-9.665-.009a1.171,1.171,0,1,1-.012-2.324c3.62-.018,7.239.006,10.859-.009a2.388,2.388,0,0,0,2.472-2.067A2.363,2.363,0,0,0,78.5,75.315c-3.8-.058-7.6.026-11.4-.038a1.162,1.162,0,0,1-.266-2.248c3.287-.175,6.591.02,9.881-.093a2.35,2.35,0,0,0-.266-4.682c-4.463-.035-8.929.015-13.393-.02a1.134,1.134,0,0,1-.984-1.719A14.533,14.533,0,0,0,64.526,58.7c.082-1.982-.487-4.23-2.315-5.292M37.364,68.966c-.058,8.754-.044,17.514-.006,26.269,2.166.055,4.335.035,6.5.012.041-8.766.082-17.541-.02-26.3C41.681,68.943,39.521,68.9,37.364,68.966Z" fill="#4fbde6"/>
    <path id="Path_8276" data-name="Path 8276" d="M216.221,62.072a4.154,4.154,0,1,1-2.864,4.779,4.183,4.183,0,0,1,2.864-4.779m.788,2.2a1.82,1.82,0,1,0,2.113,2.452A1.831,1.831,0,0,0,217.009,64.276Z" transform="translate(-126.235 -17.801)" fill="#4fbde6"/>
    <path id="Path_8277" data-name="Path 8277" d="M209.768,121.5a1.161,1.161,0,0,1,1.833.683,14.875,14.875,0,0,1,.041,1.731,6.708,6.708,0,0,1,5.348,4.265,1.163,1.163,0,0,1-1.938,1.1,6.066,6.066,0,0,0-1.991-2.423,5.018,5.018,0,0,0-5.844.569,2.782,2.782,0,0,0,.07,4.075c1.495,1.217,3.512,1.2,5.286,1.7a6.814,6.814,0,0,1,4.3,3.03,5.042,5.042,0,0,1-.347,5.465,7.448,7.448,0,0,1-4.881,2.432c-.079.747.213,1.649-.324,2.274a1.181,1.181,0,0,1-1.956-.426,12.363,12.363,0,0,1-.058-1.859c-2.732-.362-5.386-2.318-5.876-5.138a1.169,1.169,0,0,1,2.093-.741,5.38,5.38,0,0,0,1.559,2.516,6.293,6.293,0,0,0,7.061.026,2.678,2.678,0,0,0,.19-4.069c-1.144-1.1-2.788-1.375-4.291-1.664a8.057,8.057,0,0,1-4.98-2.5,5.165,5.165,0,0,1,.219-6.44,6.85,6.85,0,0,1,4.025-2.183C209.379,123.128,209.038,122.086,209.768,121.5Z" transform="translate(-119.262 -59.854)" fill="#4fbde6"/>
  </g>
</svg>
