<svg xmlns="http://www.w3.org/2000/svg" width="144.108" height="57.226" viewBox="0 0 144.108 57.226">
  <g id="Google_Pay__GPay__Logo" data-name="Google_Pay_(GPay)_Logo" transform="translate(-0.003 0.005)">
    <path id="Path_73" data-name="Path 73" d="M195.421,34.645V51.419H190.1V9.994h14.113a12.762,12.762,0,0,1,9.139,3.586,11.529,11.529,0,0,1,3.818,8.742,11.476,11.476,0,0,1-3.818,8.792,12.723,12.723,0,0,1-9.139,3.527h-8.792Zm0-19.551v14.46h8.924a7.164,7.164,0,0,0,5.265-12.266,6.941,6.941,0,0,0-5.265-2.2h-8.924Z" transform="translate(-127.265 -6.692)" fill="#d2d2d2"/>
    <path id="Path_74" data-name="Path 74" d="M284.025,46.78q5.9,0,9.314,3.153a11.179,11.179,0,0,1,3.411,8.647V76.048h-5.09V72.115h-.231a10.165,10.165,0,0,1-8.792,4.859A11.43,11.43,0,0,1,274.8,74.2a8.865,8.865,0,0,1-3.153-6.941,8.417,8.417,0,0,1,3.325-7q3.325-2.6,8.878-2.6a15.713,15.713,0,0,1,7.807,1.735V58.173a6.059,6.059,0,0,0-2.2-4.71,7.536,7.536,0,0,0-5.136-1.94,8.146,8.146,0,0,0-7.057,3.761l-4.687-2.952Q276.446,46.78,284.025,46.78ZM277.14,67.372a4.251,4.251,0,0,0,1.765,3.471,6.492,6.492,0,0,0,4.135,1.388,8.485,8.485,0,0,0,5.986-2.486,7.775,7.775,0,0,0,2.644-5.84,10.87,10.87,0,0,0-6.941-1.983,9,9,0,0,0-5.407,1.563A4.663,4.663,0,0,0,277.14,67.372Z" transform="translate(-181.858 -31.321)" fill="#d2d2d2"/>
    <path id="Path_75" data-name="Path 75" d="M378.572,49.58,360.8,90.416H355.31L361.9,76.128,350.22,49.58H356l8.445,20.36h.116l8.214-20.36Z" transform="translate(-234.461 -33.196)" fill="#d2d2d2"/>
    <path id="Path_76" data-name="Path 76" d="M94.853,63.839A28.356,28.356,0,0,0,94.443,59H72v9.165H84.854A11.016,11.016,0,0,1,80.1,75.4v5.949h7.671C92.265,77.205,94.853,71.081,94.853,63.839Z" transform="translate(-48.2 -39.502)" fill="#d2d2d2"/>
    <path id="Path_77" data-name="Path 77" d="M28.933,105.023a22.776,22.776,0,0,0,15.773-5.745l-7.671-5.949A14.434,14.434,0,0,1,15.573,85.78H7.67v6.131a23.8,23.8,0,0,0,21.263,13.112Z" transform="translate(-5.133 -57.431)" fill="#d2d2d2"/>
    <path id="Path_78" data-name="Path 78" d="M10.44,54.911a14.259,14.259,0,0,1,0-9.109V39.67h-7.9a23.8,23.8,0,0,0,0,21.372Z" transform="translate(0 -26.561)" fill="#d2d2d2"/>
    <path id="Path_79" data-name="Path 79" d="M28.934,9.417a12.92,12.92,0,0,1,9.129,3.57h0l6.792-6.792A22.866,22.866,0,0,0,28.934,0,23.8,23.8,0,0,0,7.671,13.108l7.9,6.132A14.234,14.234,0,0,1,28.934,9.417Z" transform="translate(-5.134 0)" fill="#d2d2d2"/>
  </g>
</svg>
