<svg xmlns="http://www.w3.org/2000/svg" width="109.575" height="65.603" viewBox="0 0 109.575 65.603">
  <g id="Group_2700" data-name="Group 2700" transform="translate(-583.51 -6041.736)">
    <g id="g10305" transform="translate(583.51 6041.736)">
      <path id="path2268" d="M186.409,34.673a32.793,32.793,0,0,1-65.586.017v-.017a32.793,32.793,0,1,1,65.586-.017Z" transform="translate(-76.834 -1.872)" fill="#cbcbcb" opacity="0.17"/>
      <path id="path1350" d="M34.549,1.895A32.793,32.793,0,1,0,56.827,58.936h0a33.1,33.1,0,0,0,3.329-3.512H53.442A32.028,32.028,0,0,1,51,52.045H62.585a32.847,32.847,0,0,0,1.909-3.512H49.084a32.345,32.345,0,0,1-1.37-3.445H65.866A32.937,32.937,0,0,0,66.8,27.665H46.751a32.7,32.7,0,0,1,.936-3.445H65.845a32.8,32.8,0,0,0-1.414-3.511H49.082a31.463,31.463,0,0,1,1.882-3.445H62.543A32.865,32.865,0,0,0,60,13.753H53.542a30.434,30.434,0,0,1,3.29-3.312A32.677,32.677,0,0,0,34.76,1.895Z" transform="translate(-1.967 -1.886)" fill="#cbcbcb"/>
      <path id="use9412" d="M287.337,136.82a1.09,1.09,0,0,1,.521.137.967.967,0,0,1,.4.393,1.062,1.062,0,0,1,0,1.058.987.987,0,0,1-.393.393,1.071,1.071,0,0,1-1.055,0,1,1,0,0,1-.393-.393,1.064,1.064,0,0,1,0-1.058.986.986,0,0,1,.4-.393,1.1,1.1,0,0,1,.523-.137m0,.176a.905.905,0,0,0-.435.115.813.813,0,0,0-.33.329.88.88,0,0,0-.12.442.9.9,0,0,0,.117.44.85.85,0,0,0,.329.328.888.888,0,0,0,.88,0,.839.839,0,0,0,.327-.328.9.9,0,0,0,.116-.44.885.885,0,0,0-.119-.442.807.807,0,0,0-.331-.329.889.889,0,0,0-.433-.115m-.465,1.471v-1.141h.393a.915.915,0,0,1,.29.033.281.281,0,0,1,.144.11.294.294,0,0,1,.053.167.3.3,0,0,1-.09.218.351.351,0,0,1-.237.1.332.332,0,0,1,.1.061,1.251,1.251,0,0,1,.168.226l.139.223h-.224l-.1-.18a.921.921,0,0,0-.193-.266.241.241,0,0,0-.147-.039h-.108v.485h-.185m.184-.643h.224a.36.36,0,0,0,.218-.048.156.156,0,0,0,.059-.127.149.149,0,0,0-.028-.09.173.173,0,0,0-.079-.06.572.572,0,0,0-.184-.02h-.209v.345" transform="translate(-181.052 -86.875)" fill="#fcb340"/>
    </g>
    <g id="Group_2699" data-name="Group 2699">
      <g id="g16480" transform="translate(585.601 6066.069)">
        <g id="g13802" transform="translate(0 0.691)">
          <path id="path13804" d="M124.531,73.768l.437-2.968c-.239,0-.59.1-.9.1-1.215,0-1.367-.65-1.272-1.124l1.2-5.97h1.848l.381-3.369h-1.741l.355-2.041h-3.643c-.077.077-2.061,11.481-2.061,12.871,0,2.056,1.154,2.971,2.782,2.956A9.169,9.169,0,0,0,124.531,73.768Z" transform="translate(-82.947 -56.583)" fill="#006"/>
          <path id="path13806" d="M136.706,70.923c0,4.934,3.257,6.106,6.032,6.106a10.5,10.5,0,0,0,3.9-.594l.615-3.368a12.651,12.651,0,0,1-3.923.88c-3.75,0-3.092-2.8-3.092-2.8l7.2.022a25.077,25.077,0,0,0,.459-3.184c0-2.3-1.254-5.126-5.087-5.126C139.306,62.866,136.706,66.649,136.706,70.923Zm6.124-4.932c1.97,0,1.607,2.215,1.607,2.394H140.56C140.56,68.156,140.926,65.992,142.83,65.992Z" transform="translate(-94.017 -59.396)" fill="#006"/>
          <path id="path13808" d="M196.763,70.676l.625-3.806a8.408,8.408,0,0,1-2.889.859c-2.477,0-3.471-1.891-3.471-3.923,0-4.122,2.131-6.39,4.5-6.39a6.216,6.216,0,0,1,3.207,1l.57-3.7a6.945,6.945,0,0,0-3.5-1.224c-5.457-.021-8.58,3.778-8.58,10.346,0,4.354,2.312,7.316,6.479,7.316A16.145,16.145,0,0,0,196.763,70.676Z" transform="translate(-125.841 -53.492)" fill="#006"/>
          <path id="path13810" d="M70.787,63.012a12.057,12.057,0,0,0-4.229.769l-.507,3.008a11.023,11.023,0,0,1,3.805-.615c1.3,0,2.251.146,2.251,1.2a2.238,2.238,0,0,1-.116.879s-1.026-.085-1.5-.085c-3.409,0-6.191,1.289-6.191,5.174,0,3.062,2.081,3.764,3.371,3.764a4.3,4.3,0,0,0,3.5-1.56l-.028,1.291H74.21l1.372-9.615C75.582,63.143,72.023,63.012,70.787,63.012Zm.532,7.808c.067.587-.152,3.363-2.255,3.363A1.272,1.272,0,0,1,67.7,72.864c0-.956.519-2.1,3.077-2.1C71.371,70.761,71.219,70.8,71.319,70.82Z" transform="translate(-48.407 -59.489)" fill="#006"/>
          <path id="path13812" d="M96.946,77.073c.786,0,5.282.2,5.282-4.439,0-4.338-4.161-3.48-4.161-5.224,0-.867.678-1.14,1.919-1.14.492,0,2.386.157,2.386.157l.44-3.083a16.287,16.287,0,0,0-3.221-.274c-2.583,0-5.2,1.031-5.2,4.559,0,4,4.372,3.6,4.372,5.28,0,1.124-1.221,1.217-2.163,1.217a11.413,11.413,0,0,1-3.1-.532l-.466,3.051A11.117,11.117,0,0,0,96.946,77.073Z" transform="translate(-66.504 -59.525)" fill="#006"/>
          <path id="path13814" d="M274.01,55.455l-.631,4.7a4.616,4.616,0,0,0-3.372-1.815c-3.871,0-5.866,3.858-5.866,8.289,0,2.861,1.423,5.665,4.33,5.665a4.365,4.365,0,0,0,3.251-1.459l-.154,1.245h3.4l2.667-16.6Zm-1.5,9.142c0,1.844-.913,4.308-2.806,4.308-1.257,0-1.846-1.055-1.846-2.711,0-2.707,1.216-4.493,2.751-4.493C271.865,61.7,272.511,62.564,272.511,64.6Z" transform="translate(-174.287 -54.728)" fill="#006"/>
          <path id="path13816" d="M24.836,72.053l2.126-12.535.312,12.535h2.405l4.488-12.535L32.179,72.053h3.574l2.752-16.626-5.678-.043L29.45,65.563l-.093-10.136h-5.2L21.362,72.053Z" transform="translate(-21.362 -54.684)" fill="#006"/>
          <path id="path13818" d="M170,75.392c1.016-5.779,1.378-10.343,4.342-9.4a20.142,20.142,0,0,1,1.9-5.129s-.147-.218-1.063-.218c-1.564,0-3.651,3.173-3.651,3.173l.312-1.962H168.59l-2.178,13.533H170Z" transform="translate(-112.728 -57.999)" fill="#006"/>
          <g id="use14699" transform="translate(71.747 3.523)">
            <path id="path13810_1_" d="M-623.594,63.012a12.059,12.059,0,0,0-4.23.769l-.507,3.008a11.027,11.027,0,0,1,3.8-.615c1.3,0,2.251.146,2.251,1.2a2.246,2.246,0,0,1-.116.879s-1.026-.085-1.5-.085c-3.409,0-6.192,1.289-6.192,5.174,0,3.062,2.081,3.764,3.371,3.764a4.3,4.3,0,0,0,3.495-1.56l-.029,1.291h3.075l1.371-9.615C-618.8,63.143-622.359,63.012-623.594,63.012Zm.531,7.808c.067.587-.152,3.363-2.255,3.363a1.272,1.272,0,0,1-1.366-1.318c0-.956.519-2.1,3.077-2.1C-623.01,70.761-623.162,70.8-623.063,70.82Z" transform="translate(630.083 -63.012)" fill="#006"/>
          </g>
          <path id="use14701" d="M249.162,77.453c.558-4.252,1.591-10.221,4.342-9.4.425-2.237.015-2.231-.9-2.231a16.313,16.313,0,0,0-1.911.057L251,63.919h-3.251l-2.178,13.534h3.587Z" transform="translate(-162.593 -60.06)" fill="#006"/>
        </g>
        <g id="g10289" transform="translate(1.019)">
          <path id="path4157" d="M113.244,86.9l.437-2.968c-.239,0-.59.1-.9.1-1.215,0-1.349-.646-1.272-1.124l.982-6.056h1.847l.446-3.283h-1.742l.355-2.041h-3.492c-.077.077-2.061,11.482-2.061,12.87,0,2.056,1.154,2.972,2.782,2.957A9.184,9.184,0,0,0,113.244,86.9Z" transform="translate(-71.769 -70.083)" fill="#fff"/>
          <path id="path4155" d="M125.423,84.055c0,4.934,3.257,6.107,6.032,6.107a8.886,8.886,0,0,0,3.688-.573l.615-3.368a10.872,10.872,0,0,1-3.708.858c-3.749,0-3.093-2.8-3.093-2.8h7.1a25.113,25.113,0,0,0,.458-3.184c0-2.3-1.145-5.1-4.979-5.1C128.022,76,125.423,79.78,125.423,84.055Zm6.123-4.932c1.97,0,1.607,2.214,1.607,2.393h-3.876C129.277,81.288,129.643,79.123,131.546,79.123Z" transform="translate(-82.841 -72.895)" fill="#fff"/>
          <path id="path4151" d="M185.813,84.434l.625-3.807a8.4,8.4,0,0,1-2.889.859c-2.477,0-3.47-1.891-3.47-3.923,0-4.122,2.131-6.389,4.5-6.389a6.218,6.218,0,0,1,3.207,1l.57-3.7a12.537,12.537,0,0,0-3.932-.857c-4.031,0-7.952,3.5-7.952,10.064,0,4.355,2.117,7.231,6.284,7.231A16.1,16.1,0,0,0,185.813,84.434Z" transform="translate(-114.999 -67.618)" fill="#fff"/>
          <path id="path4149" d="M59.5,76.143a12.061,12.061,0,0,0-4.23.769l-.507,3.008a11.022,11.022,0,0,1,3.8-.615c1.3,0,2.251.146,2.251,1.2a2.232,2.232,0,0,1-.117.879s-1.026-.086-1.5-.086c-3.02,0-6.192,1.289-6.192,5.174,0,3.061,2.081,3.764,3.371,3.764a4.543,4.543,0,0,0,3.582-1.6l-.115,1.334h3.074L64.3,80.354C64.3,76.274,60.739,76.143,59.5,76.143Zm.748,7.829c.067.587-.368,3.341-2.47,3.341a1.272,1.272,0,0,1-1.366-1.318c0-.956.519-2.1,3.078-2.1A2.221,2.221,0,0,1,60.251,83.972Z" transform="translate(-37.231 -72.988)" fill="#fff"/>
          <path id="path4145" d="M85.663,90.2c.786,0,5.282.2,5.282-4.439,0-4.337-4.162-3.48-4.162-5.223,0-.868.678-1.141,1.918-1.141.492,0,2.386.157,2.386.157l.44-3.083a16.287,16.287,0,0,0-3.221-.274c-2.583,0-5.2,1.031-5.2,4.559,0,4,4.372,3.6,4.372,5.28,0,1.124-1.221,1.215-2.163,1.215a11.4,11.4,0,0,1-3.1-.532l-.466,3.052A11.084,11.084,0,0,0,85.663,90.2Z" transform="translate(-55.329 -73.024)" fill="#fff"/>
          <path id="path4139" d="M262.849,68.659l-.753,4.673a4.614,4.614,0,0,0-3.372-1.815c-3.2,0-5.866,3.857-5.866,8.289,0,2.861,1.422,5.664,4.33,5.664a4.366,4.366,0,0,0,3.251-1.458l-.154,1.245h3.4l2.667-16.6Zm-1.621,9.112c0,1.844-.913,4.308-2.806,4.308-1.257,0-1.845-1.055-1.845-2.71,0-2.707,1.216-4.493,2.75-4.493C260.582,74.874,261.227,75.738,261.227,77.77Z" transform="translate(-163.112 -68.27)" fill="#fff"/>
          <path id="path4133" d="M13.736,85.258l2.126-12.535.312,12.535H18.58l4.488-12.535L21.079,85.258h3.574l2.753-16.626H21.879l-3.442,10.2-.179-10.2h-5.1L10.37,85.258Z" transform="translate(-10.37 -68.257)" fill="#fff"/>
          <path id="path4131" d="M158.716,90.287c1.016-5.78,1.2-10.472,3.63-9.613a13.433,13.433,0,0,1,1.3-4.049,3.682,3.682,0,0,0-.673-.046c-1.564,0-2.722,2.136-2.722,2.136l.311-1.962h-3.251L155.13,90.287Z" transform="translate(-101.554 -73.263)" fill="#fff"/>
          <g id="use8523" transform="translate(72.383 3.155)">
            <path id="path4149_1_" d="M-634.574,76.143a12.061,12.061,0,0,0-4.23.769l-.506,3.008a11.022,11.022,0,0,1,3.8-.615c1.3,0,2.251.146,2.251,1.2a2.244,2.244,0,0,1-.116.879s-1.026-.086-1.5-.086c-3.019,0-6.192,1.289-6.192,5.174,0,3.061,2.081,3.764,3.371,3.764a4.541,4.541,0,0,0,3.581-1.6l-.114,1.334h3.075l1.371-9.616C-629.779,76.274-633.338,76.143-634.574,76.143Zm.749,7.829c.067.587-.369,3.341-2.472,3.341a1.272,1.272,0,0,1-1.366-1.318c0-.956.519-2.1,3.078-2.1A2.234,2.234,0,0,1-633.825,83.972Z" transform="translate(641.063 -76.143)" fill="#fff"/>
          </g>
          <g id="use8525" transform="translate(82.891 3.316)">
            <path id="path4131_1_" d="M-204.365,90.287c1.017-5.78,1.205-10.472,3.63-9.613a13.46,13.46,0,0,1,1.3-4.049,3.683,3.683,0,0,0-.673-.046c-1.564,0-2.722,2.136-2.722,2.136l.311-1.962h-3.251l-2.178,13.534Z" transform="translate(207.95 -76.579)" fill="#fff"/>
          </g>
          <path id="text9407" d="M287.3,107.975a1.07,1.07,0,0,1,.52.138.959.959,0,0,1,.4.392,1.062,1.062,0,0,1,0,1.058.983.983,0,0,1-.392.393,1.071,1.071,0,0,1-1.056,0,.991.991,0,0,1-.392-.393,1.059,1.059,0,0,1,0-1.058.973.973,0,0,1,.4-.392,1.085,1.085,0,0,1,.523-.138m0,.175a.9.9,0,0,0-.435.116.808.808,0,0,0-.331.328.886.886,0,0,0,0,.882.844.844,0,0,0,.33.328.892.892,0,0,0,.879,0,.84.84,0,0,0,.327-.328.886.886,0,0,0,0-.882.8.8,0,0,0-.331-.328.891.891,0,0,0-.433-.116m-.464,1.472V108.48h.393a.924.924,0,0,1,.291.033.28.28,0,0,1,.144.11.29.29,0,0,1,.054.167.3.3,0,0,1-.09.218.346.346,0,0,1-.236.1.35.35,0,0,1,.1.06,1.357,1.357,0,0,1,.168.226l.14.224h-.225l-.1-.179a.924.924,0,0,0-.193-.266.236.236,0,0,0-.148-.039h-.108v.485h-.186m.184-.642h.224a.356.356,0,0,0,.218-.048.155.155,0,0,0,.059-.127.15.15,0,0,0-.028-.09.17.17,0,0,0-.079-.061.58.58,0,0,0-.184-.02h-.209v.344" transform="translate(-184.137 -93.039)" fill="#fff"/>
        </g>
      </g>
    </g>
  </g>
</svg>
