<svg xmlns="http://www.w3.org/2000/svg" width="84" height="84" viewBox="0 0 84 84">
  <g id="Group_2705" data-name="Group 2705" transform="translate(-1069 -2740)">
    <circle id="Ellipse_8" data-name="Ellipse 8" cx="42" cy="42" r="42" transform="translate(1069 2740)" fill="#4fbde6"/>
    <g id="_010101ff" data-name="#010101ff" transform="translate(993.965 2695.365)">
      <path id="Path_45" data-name="Path 45" d="M96.489,68.25c.355-.36.709-.717,1.07-1.07,3.266,3.279,6.554,6.537,9.81,9.827.428.381.143.966-.206,1.285q1.5,1.514,3.019,3.013a30.833,30.833,0,0,1,6.118.274,1.784,1.784,0,0,0,.7,0,31.074,31.074,0,0,1,6.1-.27c1.023-.989,2.015-2.009,3.024-3.011-.358-.321-.63-.915-.2-1.3q4.884-4.924,9.8-9.814c.357.353.709.709,1.07,1.06q-4.635,4.644-9.276,9.28,5.719,5.733,11.451,11.453a.767.767,0,0,1,.081,1.151c-.707.74-1.449,1.447-2.168,2.177a.769.769,0,0,1-1.145.092c-.6-.56-1.155-1.162-1.743-1.734a18.63,18.63,0,0,0-1.853,1.97c-.594.9-.274,2.045-.683,3.009a5.786,5.786,0,0,1-1.668,2.245,2.428,2.428,0,0,1,.5,2.005,4.366,4.366,0,0,1-1.522,2.022,2.7,2.7,0,0,1-1.419.664,4.24,4.24,0,0,1-1.734,2.468,2.747,2.747,0,0,1-1.289.549,4.145,4.145,0,0,1-1.692,2.439,2.727,2.727,0,0,1-1.326.579,2.621,2.621,0,0,1-.657,1.419c-.626.623-1.222,1.424-2.164,1.551a2.472,2.472,0,0,1-1.851-.517,2.438,2.438,0,0,1-2.064.474,4.361,4.361,0,0,1-1.877-1.421,2.592,2.592,0,0,1-.738-1.511,4.165,4.165,0,0,1-2.451-1.7,2.608,2.608,0,0,1-.568-1.322,4.154,4.154,0,0,1-2.451-1.7,2.638,2.638,0,0,1-.57-1.319c-1.117-.113-1.832-1.041-2.536-1.805a2.334,2.334,0,0,1,.091-2.883,6.128,6.128,0,0,1-1.628-2.149,10.494,10.494,0,0,1-.4-2.36c-.3-1.177-1.4-1.851-2.164-2.713-.592.574-1.155,1.181-1.756,1.745a.729.729,0,0,1-1.03-.013q-1.155-1.123-2.279-2.281a.76.76,0,0,1,.089-1.138q5.725-5.73,11.451-11.459-4.638-4.63-9.274-9.267m-.662,21.345c.4.4.794.8,1.2,1.2q5.131-5.125,10.253-10.253-.6-.594-1.2-1.192-5.131,5.122-10.253,10.25m30.187-9.052q5.119,5.131,10.248,10.25.606-.591,1.2-1.2-5.125-5.119-10.248-10.246-.6.594-1.2,1.2M100.357,89.6c.873.945,2.007,1.743,2.434,3.015.383.881.115,1.907.558,2.769a5.691,5.691,0,0,0,1.217,1.447c.783-.753,1.521-1.555,2.319-2.292a2.235,2.235,0,0,1,2.917,0,6.5,6.5,0,0,1,1.573,1.826,2.362,2.362,0,0,1,2.3.526,4.425,4.425,0,0,1,1.53,2.03,2.967,2.967,0,0,1-.047,1.215,6.979,6.979,0,0,1,1.822,1.581,2.62,2.62,0,0,1,.564,1.313,2.909,2.909,0,0,1,1.206.477c.951.811,2.1,1.849,1.743,3.251l.5.309c.7.1,1.081-.64,1.541-1.036a.766.766,0,0,0,0-1.177c-1.879-1.9-3.777-3.779-5.662-5.671.357-.353.711-.706,1.062-1.062,1.9,1.879,3.773,3.779,5.669,5.658a.754.754,0,0,0,1.075.1,9.87,9.87,0,0,0,1.056-1.083.767.767,0,0,0-.192-.972c-1.877-1.892-3.771-3.771-5.652-5.66.355-.353.711-.706,1.062-1.064q2.79,2.779,5.569,5.567a1.011,1.011,0,0,0,.7.379c.434,0,.685-.408.981-.662.257-.292.645-.543.657-.973,0-.44-.409-.7-.674-1q-5.776-5.753-11.531-11.525c-.87.853-1.713,1.732-2.59,2.575a2.883,2.883,0,0,1-4.073-4.073,11.951,11.951,0,0,1,3.458-2.53c-1.262-.145-2.534.019-3.8-.094-.53-.245-.866-.783-1.3-1.162q-3.993,4-7.986,7.991m23.278-6.822c-1.573.085-3.152-.025-4.728.057a12,12,0,0,0-7.765,3.532,1.374,1.374,0,0,0,1.939,1.947c1.026-1,2.011-2.032,3.041-3.022a.768.768,0,0,1,1.147.092q5.722,5.725,11.448,11.448a4.417,4.417,0,0,0,1.383-1.858,13.752,13.752,0,0,1,.419-2.422c.443-1.239,1.556-2.021,2.411-2.956l-7.986-7.986a6.2,6.2,0,0,1-1.309,1.17M108.05,95.56c-1.23,1.079-2.368,2.287-3.5,3.469-.4.7.432,1.189.832,1.634a.814.814,0,0,0,1.175.2c1.092-1.068,2.177-2.145,3.239-3.243a.8.8,0,0,0-.185-1.172c-.443-.385-.866-1.149-1.558-.892m3.788,2.258c-1.287,1.083-2.4,2.375-3.622,3.535-.349.374-.964.77-.7,1.37a7.025,7.025,0,0,0,1.1,1.149.748.748,0,0,0,1.081-.1c1.289-1.294,2.594-2.569,3.866-3.879a.806.806,0,0,0-.181-1.183c-.44-.381-.853-1.143-1.541-.9m2.047,3.918c-1.055,1.024-2.085,2.073-3.122,3.115a.75.75,0,0,0-.181.972,8.745,8.745,0,0,0,1.049,1.066.742.742,0,0,0,1.072-.083c1.041-1.049,2.105-2.075,3.126-3.143a.8.8,0,0,0-.189-1.179c-.451-.438-1.073-1.328-1.755-.747m3.022,3.015c-1.109,1.1-2.247,2.187-3.307,3.335-.381.647.358,1.132.743,1.545.3.37.875.685,1.281.275,1.087-1.066,2.173-2.136,3.228-3.234a.8.8,0,0,0-.191-1.168c-.455-.438-1.066-1.33-1.755-.755m2.679,3.366c-.617.572-1.207,1.173-1.788,1.781,0,.321.443.189.643.149a5.921,5.921,0,0,0,1.292-1.294C119.756,108.554,119.918,108.079,119.586,108.116Z" fill="#fff"/>
    </g>
  </g>
</svg>
