<svg xmlns="http://www.w3.org/2000/svg" width="30.411" height="20.355" viewBox="0 0 30.411 20.355">
  <g id="Group_2699" data-name="Group 2699" transform="translate(-1292.794 -965.473)">
    <path id="Icon_open-person" data-name="Icon open-person" d="M11.206,0C8.124,0,5.6,2.85,5.6,6.361s2.521,6.361,5.6,6.361,5.6-2.85,5.6-6.361S14.287,0,11.206,0ZM5.351,12.722A5.342,5.342,0,0,0,0,17.811v2.544H22.411V17.811a5.323,5.323,0,0,0-5.351-5.089,8.2,8.2,0,0,1-5.855,2.544A8.2,8.2,0,0,1,5.351,12.722Z" transform="translate(1292.794 965.473)" fill="#9b9b9b"/>
    <path id="Icon_open-person-2" data-name="Icon open-person" d="M11.206,0C8.124,0,5.6,2.85,5.6,6.361s2.521,6.361,5.6,6.361,5.6-2.85,5.6-6.361S14.287,0,11.206,0ZM5.351,12.722A5.342,5.342,0,0,0,0,17.811v2.544H22.411V17.811a5.323,5.323,0,0,0-5.351-5.089,8.2,8.2,0,0,1-5.855,2.544A8.2,8.2,0,0,1,5.351,12.722Z" transform="translate(1300.794 965.473)"/>
  </g>
</svg>
