<svg id="PayPal" xmlns="http://www.w3.org/2000/svg" width="192.135" height="46.917" viewBox="0 0 192.135 46.917">
  <path id="Path_18" data-name="Path 18" d="M52.063,6.749H41.431A1.477,1.477,0,0,0,39.971,8l-4.3,27.264a.886.886,0,0,0,.877,1.023h5.076a1.477,1.477,0,0,0,1.46-1.248l1.16-7.354A1.477,1.477,0,0,1,45.7,26.433h3.366c7,0,11.046-3.389,12.1-10.105.476-2.938.02-5.247-1.356-6.864-1.511-1.775-4.191-2.714-7.75-2.714Zm1.227,9.958c-.581,3.815-3.5,3.815-6.315,3.815h-1.6L46.5,13.4a.886.886,0,0,1,.875-.748h.735c1.92,0,3.731,0,4.667,1.094a3.543,3.543,0,0,1,.516,2.963Zm30.556-.123H78.754a.886.886,0,0,0-.875.748l-.225,1.424L77.3,18.24c-1.1-1.6-3.56-2.135-6.013-2.135A11.708,11.708,0,0,0,59.916,26.344a9.61,9.61,0,0,0,1.9,7.822,7.967,7.967,0,0,0,6.413,2.59,9.742,9.742,0,0,0,7.047-2.915l-.227,1.415a.886.886,0,0,0,.874,1.026h4.586a1.477,1.477,0,0,0,1.46-1.248l2.752-17.426a.883.883,0,0,0-.872-1.023Zm-7.1,9.909A5.675,5.675,0,0,1,71,31.355a3.944,3.944,0,0,1-4.218-4.95,5.7,5.7,0,0,1,5.706-4.9,4.3,4.3,0,0,1,3.4,1.387A4.407,4.407,0,0,1,76.748,26.493Zm34.214-9.909h-5.116a1.483,1.483,0,0,0-1.224.648L97.565,27.627l-2.991-9.989a1.482,1.482,0,0,0-1.418-1.054H88.129a.886.886,0,0,0-.841,1.172l5.636,16.539-5.3,7.479a.886.886,0,0,0,.723,1.4h5.11a1.475,1.475,0,0,0,1.214-.634L111.69,17.975a.886.886,0,0,0-.728-1.391Z" transform="translate(19.78 3.743)" fill="#d2d2d2"/>
  <path id="Path_19" data-name="Path 19" d="M100.844,6.75H90.21A1.477,1.477,0,0,0,88.752,8l-4.3,27.264a.885.885,0,0,0,.874,1.023h5.457a1.034,1.034,0,0,0,1.02-.874l1.22-7.728a1.477,1.477,0,0,1,1.458-1.248h3.364c7.005,0,11.046-3.389,12.1-10.105.477-2.938.019-5.247-1.357-6.864-1.51-1.775-4.188-2.714-7.747-2.714Zm1.227,9.958c-.58,3.815-3.495,3.815-6.315,3.815h-1.6L95.28,13.4a.883.883,0,0,1,.874-.748h.735c1.918,0,3.731,0,4.667,1.094A3.544,3.544,0,0,1,102.071,16.707Zm30.554-.123h-5.088a.881.881,0,0,0-.874.748l-.225,1.424-.358-.516c-1.1-1.6-3.559-2.135-6.012-2.135A11.707,11.707,0,0,0,108.7,26.345a9.615,9.615,0,0,0,1.9,7.822,7.971,7.971,0,0,0,6.413,2.59,9.742,9.742,0,0,0,7.047-2.915l-.227,1.415a.886.886,0,0,0,.877,1.026h4.585a1.477,1.477,0,0,0,1.458-1.248L133.5,17.607a.888.888,0,0,0-.878-1.023Zm-7.1,9.909a5.672,5.672,0,0,1-5.744,4.861,3.944,3.944,0,0,1-4.218-4.95,5.7,5.7,0,0,1,5.706-4.9,4.3,4.3,0,0,1,3.4,1.387A4.385,4.385,0,0,1,125.528,26.494Zm13.1-19-4.364,27.763a.885.885,0,0,0,.874,1.023h4.387a1.475,1.475,0,0,0,1.46-1.248l4.3-27.263a.886.886,0,0,0-.874-1.025H139.5a.888.888,0,0,0-.874.749Z" transform="translate(46.837 3.743)" fill="#d2d2d2"/>
  <path id="Path_20" data-name="Path 20" d="M10.708,44.757l.813-5.165L9.71,39.55H1.061L7.071,1.441a.491.491,0,0,1,.488-.417H22.142c4.841,0,8.182,1.007,9.927,3A6.83,6.83,0,0,1,33.659,7a10.76,10.76,0,0,1,.011,4.111l-.019.12v1.051l.818.463a5.737,5.737,0,0,1,1.656,1.262,5.878,5.878,0,0,1,1.343,3.013,12.745,12.745,0,0,1-.191,4.372,15.4,15.4,0,0,1-1.791,4.948,10.179,10.179,0,0,1-2.837,3.109,11.511,11.511,0,0,1-3.821,1.724,19.057,19.057,0,0,1-4.776.552H22.917a3.413,3.413,0,0,0-3.375,2.881l-.086.465-1.437,9.1-.065.334a.287.287,0,0,1-.09.194.241.241,0,0,1-.149.054Z" transform="translate(0.588 0.568)" fill="#d2d2d2"/>
  <path id="Path_21" data-name="Path 21" d="M32.4,7.667q-.065.417-.149.855c-1.923,9.874-8.5,13.285-16.905,13.285H11.066a2.078,2.078,0,0,0-2.054,1.76L6.822,37.459,6.2,41.4a1.094,1.094,0,0,0,1.08,1.265h7.588a1.826,1.826,0,0,0,1.8-1.539l.075-.386,1.429-9.067.092-.5a1.825,1.825,0,0,1,1.8-1.542h1.135c7.352,0,13.107-2.985,14.79-11.623.7-3.608.339-6.621-1.52-8.74a7.256,7.256,0,0,0-2.077-1.6Z" transform="translate(3.432 4.253)" fill="#d2d2d2"/>
  <path id="Path_22" data-name="Path 22" d="M29.38,7.4a15.169,15.169,0,0,0-1.87-.415,23.762,23.762,0,0,0-3.772-.275H12.308a1.822,1.822,0,0,0-1.8,1.542L8.075,23.65l-.07.449a2.077,2.077,0,0,1,2.054-1.76h4.278c8.4,0,14.982-3.412,16.906-13.285.058-.292.106-.577.149-.855a10.252,10.252,0,0,0-1.581-.667Q29.6,7.462,29.38,7.4Z" transform="translate(4.44 3.72)" fill="#d2d2d2"/>
  <path id="Path_23" data-name="Path 23" d="M14.947,11.969a1.817,1.817,0,0,1,1.8-1.541h11.43a23.762,23.762,0,0,1,3.772.275,15.169,15.169,0,0,1,2.3.549,10.406,10.406,0,0,1,1.581.667c.572-3.649,0-6.133-1.978-8.383C31.681,1.06,27.756,0,22.732,0H8.15A2.084,2.084,0,0,0,6.09,1.761L.015,40.263a1.253,1.253,0,0,0,1.236,1.449h9l2.26-14.342,2.432-15.4Z" transform="translate(0 0)" fill="#d2d2d2"/>
</svg>
