<svg xmlns="http://www.w3.org/2000/svg" width="84" height="84" viewBox="0 0 84 84">
  <g id="Group_2702" data-name="Group 2702" transform="translate(-1388 -1363)">
    <circle id="Ellipse_4" data-name="Ellipse 4" cx="42" cy="42" r="42" transform="translate(1388 1363)" fill="#4fbde6"/>
    <g id="_000001ff" data-name="#000001ff" transform="translate(1365.373 1323.199)">
      <path id="Path_22" data-name="Path 22" d="M64.317,60.06a1.37,1.37,0,0,1,.733.027q8.7,2.6,17.4,5.215a1.455,1.455,0,0,1,1.306,1.472q.005,6.851,0,13.7a26.308,26.308,0,0,1-18.811,25.062,1.192,1.192,0,0,1-.637,0A26.3,26.3,0,0,1,45.5,80.668c-.012-4.628,0-9.258,0-13.887a1.35,1.35,0,0,1,1.016-1.387c5.938-1.771,11.869-3.567,17.807-5.335M48.164,67.681q-.008,6.392,0,12.784A23.5,23.5,0,0,0,63.284,102.38c.016-2.814,0-5.626.007-8.441a12.016,12.016,0,0,1,0-23.88q.008-3.455,0-6.912-7.561,2.267-15.123,4.534m17.8-4.539c-.009,2.3,0,4.6-.005,6.908a12.025,12.025,0,0,1,0,23.9q.005,4.218,0,8.439A23.494,23.494,0,0,0,81.087,80.67q.011-6.493,0-12.988-7.561-2.272-15.123-4.539M58.537,74.921a9.31,9.31,0,0,0-1.173,12.938,7.773,7.773,0,0,1,3.693-4.526,4.445,4.445,0,1,1,7.138,0,7.729,7.729,0,0,1,3.692,4.53,9.334,9.334,0,0,0-13.35-12.944m5.753,3.992a1.781,1.781,0,1,0,2,2.387,1.8,1.8,0,0,0-2-2.387m-2.305,6.981a5,5,0,0,0-2.268,4.051,9.392,9.392,0,0,0,9.809.014,4.99,4.99,0,0,0-1.766-3.7A4.905,4.905,0,0,0,61.985,85.894Z" transform="translate(0 0)" fill="#fff"/>
    </g>
  </g>
</svg>
