<svg xmlns="http://www.w3.org/2000/svg" width="84" height="84" viewBox="0 0 84 84">
  <g id="Group_2699" data-name="Group 2699" transform="translate(-446 -1364)">
    <circle id="Ellipse_2" data-name="Ellipse 2" cx="42" cy="42" r="42" transform="translate(446 1364)" fill="#4fbde6"/>
    <g id="_000000ff" data-name="#000000ff" transform="translate(399.237 1348.765)">
      <path id="Path_23" data-name="Path 23" d="M88.522,33.824c.475-.252.966.046,1.421.2,3.4,1.388,6.821,2.748,10.228,4.134a2.251,2.251,0,0,0,.974.191c2.3.01,4.592-.023,6.887.01a4.287,4.287,0,0,1,4.1,4.075c.041,4.495.005,8.992.018,13.49a23.429,23.429,0,0,1-.183,3.778,1.211,1.211,0,0,1-1.7.842,1.1,1.1,0,0,1-.615-1.073,46.5,46.5,0,0,0,.165-5.583c-.008-3.737.013-7.477-.008-11.214a1.9,1.9,0,0,0-1.795-1.978c-2.55-.053-5.105.005-7.655-.023a2.618,2.618,0,0,1-1.027-.249c-3.45-1.426-6.913-2.832-10.368-4.251-3.722,1.485-7.439,2.982-11.164,4.459-2.636.125-5.281-.018-7.92.066A1.9,1.9,0,0,0,68.1,42.674c-.02,3.308,0,6.618-.008,9.925.033,2.652-.181,5.352.491,7.95,1.121,4.759,4.233,8.8,7.9,11.916a44.13,44.13,0,0,0,11.99,7.116c.59.269,1.439.376,1.632,1.108a1.118,1.118,0,0,1-1.149,1.434,6.641,6.641,0,0,1-1.421-.447,47.455,47.455,0,0,1-11.293-6.435,27.562,27.562,0,0,1-9.181-11.7,20.168,20.168,0,0,1-1.307-7.114q0-6.868,0-13.737a4.305,4.305,0,0,1,3.854-4.314c2.466-.084,4.937.008,7.406-.038a2.123,2.123,0,0,0,.717-.178C81.334,36.717,84.922,35.25,88.522,33.824Z" transform="translate(0 0)" fill="#fff"/>
      <path id="Path_24" data-name="Path 24" d="M105.695,57.424c.419-.2.852.038,1.251.175,3.366,1.34,6.753,2.631,10.119,3.969,1.569.755,3.356.259,5.026.4a1.151,1.151,0,0,1,1.325,1.129c.031,1.95.013,3.9.01,5.853a1.269,1.269,0,0,1-1.075,1.355,1.24,1.24,0,0,1-1.253-1.332c-.018-1.558.005-3.117,0-4.675-1.436-.109-2.985.31-4.314-.407-3.564-1.375-7.136-2.733-10.7-4.1-3.389,1.368-6.791,2.705-10.175,4.081-1.492.791-3.236.282-4.848.425q0,4.618,0,9.234a13.222,13.222,0,0,0,2.342,7.327,1.188,1.188,0,0,1-1.775,1.528,13.47,13.47,0,0,1-2.471-5.344,12.441,12.441,0,0,1-.432-3.5c.008-3.394,0-6.788.005-10.182a1.2,1.2,0,0,1,.814-1.34c1.647-.163,3.32.071,4.963-.109C98.243,60.454,101.95,58.891,105.695,57.424Z" transform="translate(-17.12 -17.615)" fill="#fff"/>
      <path id="Path_25" data-name="Path 25" d="M126.947,91.485a3.209,3.209,0,0,1,4.953-.524,3.371,3.371,0,0,1-1.014,5.436q0,.8-.005,1.6a9.038,9.038,0,0,1,4.523,1.841c.371-.32.745-.641,1.114-.961a2.351,2.351,0,0,1,2.453-2.809,2.267,2.267,0,0,1,1.459,3.549,2.876,2.876,0,0,1-2.214.923c-.386.318-.768.643-1.149.966a8.51,8.51,0,0,1,2.011,4.691l1.452-.008a3.389,3.389,0,0,1,4.63-1.823,3.435,3.435,0,0,1,.386,5.7,3.315,3.315,0,0,1-5.014-1.533c-.486,0-.971,0-1.454,0a9.058,9.058,0,0,1-2.008,4.686c.371.315.742.631,1.121.938a2.449,2.449,0,0,1,2.553,1.548,2.229,2.229,0,0,1-2.53,2.847,2.482,2.482,0,0,1-1.7-2.708q-.553-.484-1.106-.961a9.117,9.117,0,0,1-4.523,1.841c0,.478,0,.953,0,1.431a3.629,3.629,0,0,1,1.762,4.467,3.194,3.194,0,0,1-4.075,1.889,3.351,3.351,0,0,1-1.858-4.571,3.8,3.8,0,0,1,1.833-1.777c0-.48,0-.958.005-1.439a9.605,9.605,0,0,1-4.683-1.843q-.561.477-1.116.958a2.314,2.314,0,0,1-1.584,2.69,2.232,2.232,0,0,1-2.619-2.909,2.53,2.53,0,0,1,2.555-1.48c.369-.308.732-.618,1.1-.931a10.472,10.472,0,0,1-2.016-4.678c-.483,0-.964,0-1.447,0a3.646,3.646,0,0,1-2.008,1.986,3.334,3.334,0,0,1-4.228-2.207,3.294,3.294,0,0,1,6.236-2.118c.481,0,.964,0,1.447,0a9.748,9.748,0,0,1,2.016-4.683q-.568-.484-1.136-.966a2.618,2.618,0,0,1-2.469-1.335,2.231,2.231,0,0,1,2.326-3.127,2.257,2.257,0,0,1,1.823,2.792c.371.323.745.643,1.116.966A9.642,9.642,0,0,1,128.546,98c0-.536,0-1.07-.005-1.6a3.267,3.267,0,0,1-1.594-4.909m2.255.976a1.025,1.025,0,0,0,.145,1.823.965.965,0,1,0-.145-1.823m-.8,7.894a7.258,7.258,0,0,0-5.753,7.968c.506,4.017,4.871,7.1,8.82,5.936a7.174,7.174,0,0,0,4.991-8.8,7.039,7.039,0,0,0-8.057-5.1m14.987,6.053a1.021,1.021,0,0,0-.074,1.879.917.917,0,0,0,1.246-.989.9.9,0,0,0-1.172-.89m-28.289.117a1.021,1.021,0,0,0,.465,1.831c.826.109,1.213-1.012.786-1.607a.868.868,0,0,0-1.251-.224M129.1,120.532a1.046,1.046,0,0,0,.468,1.843c.694.119,1.139-.714.941-1.3A.936.936,0,0,0,129.1,120.532Z" transform="translate(-34.752 -41.982)" fill="#fff"/>
      <path id="Path_26" data-name="Path 26" d="M180.018,137.83a2.614,2.614,0,0,1,3.379.918,2.673,2.673,0,1,1-4.9,1.454A2.7,2.7,0,0,1,180.018,137.83Z" transform="translate(-84.075 -77.425)" fill="#fff"/>
      <path id="Path_27" data-name="Path 27" d="M159.885,155.809a1.757,1.757,0,1,1,.183,3.145A1.764,1.764,0,0,1,159.885,155.809Z" transform="translate(-69.554 -90.874)" fill="#fff"/>
      <path id="Path_28" data-name="Path 28" d="M182.112,167.654a1.616,1.616,0,0,1,2.377,1.431,1.581,1.581,0,0,1-2.705.986A1.557,1.557,0,0,1,182.112,167.654Z" transform="translate(-86.194 -99.706)" fill="#fff"/>
    </g>
  </g>
</svg>
