<svg xmlns="http://www.w3.org/2000/svg" width="55" height="54.989" viewBox="0 0 55 54.989">
  <g id="Screenshot_11" transform="translate(-49.994 -29.041)">
    <g id="_c53642ff" data-name="#c53642ff" transform="translate(49.994 29.041)">
      <path id="Path_8193" data-name="Path 8193" d="M59.54,29.928a2.673,2.673,0,0,1,3.976,0,3.734,3.734,0,0,1,.7,2.65q5.292.007,10.589,0a3.7,3.7,0,0,1,.7-2.65,2.672,2.672,0,0,1,3.974,0,3.736,3.736,0,0,1,.7,2.654q5.292,0,10.589,0a3.7,3.7,0,0,1,.7-2.65,2.673,2.673,0,0,1,3.976,0,3.745,3.745,0,0,1,.7,2.65c1.841.024,3.683-.033,5.526.02a3.539,3.539,0,0,1,3.311,3.513q.013,22.194,0,44.39a3.556,3.556,0,0,1-3.524,3.524q-23.97.013-47.942,0A3.561,3.561,0,0,1,50,80.5q-.013-22.194,0-44.39A3.544,3.544,0,0,1,53.31,32.6c1.841-.053,3.686,0,5.528-.02a3.7,3.7,0,0,1,.7-2.65m1.643.951c-.67.284-.521,1.113-.554,1.694.042,2.071-.035,4.142.033,6.211a.869.869,0,0,0,1.355.734c.526-.355.359-1.073.408-1.61-.044-2.069.038-4.142-.033-6.211a.87.87,0,0,0-1.209-.818m15.967,0c-.67.282-.521,1.111-.554,1.692.042,2.071-.035,4.145.033,6.214a.869.869,0,0,0,1.355.734c.523-.355.361-1.071.408-1.61-.042-2.069.035-4.142-.033-6.211a.872.872,0,0,0-1.209-.818m15.964,0c-.665.286-.519,1.113-.552,1.694.042,2.069-.038,4.142.033,6.211a.87.87,0,0,0,1.357.734c.523-.355.357-1.073.406-1.61-.044-2.069.038-4.142-.033-6.211a.872.872,0,0,0-1.211-.818M52.288,34.873a2.428,2.428,0,0,0-.528,1.914c.031,3.916-.018,7.83.022,11.747q25.71.033,51.422,0c.04-3.916-.009-7.833.022-11.749a2.01,2.01,0,0,0-2.442-2.439c-1.55.02-3.1-.013-4.648.022a13.045,13.045,0,0,0,.035,2.373,5.434,5.434,0,0,0,.8.767A5.164,5.164,0,0,1,98.762,41.9,5.319,5.319,0,0,1,88.368,42.99a5.263,5.263,0,0,1,1.025-4.943c.41-.477.962-.814,1.355-1.308a13.222,13.222,0,0,0,.035-2.371q-5.306-.037-10.613,0a13.045,13.045,0,0,0,.035,2.373c.426.534,1.036.889,1.459,1.428A5.291,5.291,0,0,1,82.8,41.9,5.318,5.318,0,0,1,72.4,42.987a5.26,5.26,0,0,1,1.025-4.941c.41-.479.965-.812,1.355-1.308a13.429,13.429,0,0,0,.038-2.371q-5.309-.037-10.618,0a13.248,13.248,0,0,0,.038,2.373,7.2,7.2,0,0,0,.911.869,5.149,5.149,0,0,1,1.692,4.069,5.32,5.32,0,0,1-10.409,1.308,5.267,5.267,0,0,1,1.027-4.941c.41-.477.962-.814,1.355-1.306a13.459,13.459,0,0,0,.038-2.373c-1.55-.035-3.1,0-4.653-.022a2.425,2.425,0,0,0-1.912.528m7.2,9.491a3.574,3.574,0,0,0,5.118-1.155,3.771,3.771,0,0,0-.277-4.018,13.5,13.5,0,0,1-.934,1.47,2.641,2.641,0,0,1-3.251.395,3.874,3.874,0,0,1-1.364-1.883,3.6,3.6,0,0,0,.707,5.191m15.969,0a3.57,3.57,0,0,0,5.114-1.153,3.779,3.779,0,0,0-.273-4.021,14.86,14.86,0,0,1-.936,1.47,2.644,2.644,0,0,1-3.251.395,3.864,3.864,0,0,1-1.364-1.883,3.6,3.6,0,0,0,.71,5.191m14.454-3.12a3.549,3.549,0,0,0,6.848,1.5,3.854,3.854,0,0,0-.49-3.55c-.306.435-.526.925-.838,1.353a2.637,2.637,0,0,1-3.355.51,3.852,3.852,0,0,1-1.359-1.883,3.824,3.824,0,0,0-.8,2.071M51.769,50.328c0,.588,0,1.173,0,1.761q25.723.017,51.448,0c0-.588,0-1.173,0-1.761q-25.723-.017-51.448,0m.007,3.548q-.013,13.309,0,26.62a1.792,1.792,0,0,0,1.969,1.759q22.849,0,45.7,0a18.966,18.966,0,0,0,2.408-.058,1.8,1.8,0,0,0,1.362-1.92c0-8.8.009-17.6-.007-26.4Q77.494,53.859,51.776,53.876Z" transform="translate(-49.994 -29.041)" fill="#fff"/>
      <path id="Path_8194" data-name="Path 8194" d="M66.5,149.057a6.269,6.269,0,0,1,1.47-.089c2.588.031,5.176-.027,7.762.022a.835.835,0,0,1,.874.871q.047,2.658,0,5.322a.906.906,0,0,1-1.08.885q-4.228.01-8.456,0a.9.9,0,0,1-1.078-.885c-.047-1.632,0-3.264-.02-4.894,0-.45.013-1.064.528-1.233m1.257,1.7q-.023,1.766,0,3.535,3.543.017,7.083,0,.02-1.766,0-3.535Q71.3,150.739,67.758,150.756Z" transform="translate(-62.427 -122.373)" fill="#fff"/>
      <path id="Path_8195" data-name="Path 8195" d="M122.49,149.057a6.243,6.243,0,0,1,1.468-.089c2.588.031,5.178-.027,7.764.022a.834.834,0,0,1,.872.871q.047,2.661,0,5.322a.907.907,0,0,1-1.08.885q-4.224.01-8.453,0c-.455.033-1.011-.175-1.056-.694-.1-1.617-.007-3.24-.047-4.861.013-.508-.069-1.244.532-1.457m1.255,1.7q-.023,1.77,0,3.537,3.543.017,7.083,0,.02-1.766,0-3.535Q127.286,150.736,123.745,150.754Z" transform="translate(-105.996 -122.373)" fill="#fff"/>
      <path id="Path_8196" data-name="Path 8196" d="M137.669,156.5a11.512,11.512,0,1,1-1.648,13.935,16.366,16.366,0,0,1-1.335-3.1,11.524,11.524,0,0,0-2.038-1.251c-.044.714.144,1.989-.918,1.983-2.887.038-5.777.009-8.664.013a.9.9,0,0,1-1.078-.885q-.047-2.661,0-5.322a.832.832,0,0,1,.872-.871c2.739-.047,5.48.007,8.218-.022.466.029,1.087-.075,1.384.381a5.046,5.046,0,0,1,.186,1.623,11.276,11.276,0,0,0,2.038-1.253,12.454,12.454,0,0,1,2.983-5.227m4.863-1.115a9.661,9.661,0,0,0-5.968,6.438c-.169.459-.217,1.04-.667,1.324-.738.5-1.555.867-2.282,1.384.976.827,2.694,1.044,2.9,2.53a9.634,9.634,0,0,0,3.843,5.473,9.753,9.753,0,1,0,2.178-17.149m-18.779,7.378q-.023,1.766,0,3.535,3.539.017,7.083,0,.02-1.766,0-3.535Q127.294,162.745,123.753,162.762Z" transform="translate(-106.005 -125.509)" fill="#fff"/>
      <path id="Path_8197" data-name="Path 8197" d="M201.1,173.212a.8.8,0,0,1,1.087.1c1.044.88,1.889,1.969,2.938,2.845,1.1-.9,1.954-2.06,3.069-2.941.619-.5,1.244.208,1.67.619a23.891,23.891,0,0,1,2.262,2.408c.266.435-.1.878-.386,1.189-.858.923-1.829,1.732-2.643,2.7.9,1.1,2.065,1.951,2.941,3.071.5.619-.211,1.242-.621,1.668a24.174,24.174,0,0,1-2.408,2.264c-.435.264-.876-.106-1.186-.388-.92-.86-1.732-1.832-2.7-2.643-1.1.9-1.954,2.062-3.071,2.941-.559.475-1.164-.122-1.555-.512-.752-.8-1.606-1.51-2.286-2.373a.8.8,0,0,1,.1-1.089c.883-1.042,1.971-1.887,2.847-2.938-.9-1.1-2.065-1.956-2.943-3.071-.477-.559.122-1.162.51-1.555.8-.752,1.512-1.606,2.377-2.289m-.9,3.366c.911,1.022,1.963,1.912,2.874,2.934a.842.842,0,0,1,0,1.229c-.914,1.022-1.965,1.909-2.876,2.934a15.418,15.418,0,0,0,1.373,1.373c1.022-.911,1.914-1.963,2.934-2.874a.838.838,0,0,1,1.229,0c1.022.914,1.912,1.965,2.934,2.876a15.413,15.413,0,0,0,1.373-1.373c-.911-1.025-1.963-1.914-2.876-2.936a.838.838,0,0,1,0-1.226c.911-1.02,1.963-1.909,2.874-2.934a15.124,15.124,0,0,0-1.373-1.373c-1.022.911-1.912,1.963-2.934,2.876a.841.841,0,0,1-1.226,0c-1.022-.914-1.912-1.965-2.936-2.876A15.42,15.42,0,0,0,200.2,176.578Z" transform="translate(-165.205 -141.105)" fill="#fff"/>
      <path id="Path_8198" data-name="Path 8198" d="M66.5,189.057a6.269,6.269,0,0,1,1.47-.089c2.588.031,5.176-.027,7.764.022a.834.834,0,0,1,.872.872q.047,2.658,0,5.32a.906.906,0,0,1-1.08.887q-4.228.01-8.453,0a.906.906,0,0,1-1.08-.885c-.047-1.632,0-3.264-.02-4.9,0-.448.013-1.062.528-1.231m1.257,1.7q-.023,1.766,0,3.535,3.543.017,7.083,0c.016-1.178.013-2.357,0-3.535Q71.3,190.736,67.758,190.756Z" transform="translate(-62.427 -153.503)" fill="#fff"/>
      <path id="Path_8199" data-name="Path 8199" d="M66.5,229.057a6.276,6.276,0,0,1,1.47-.089c2.588.031,5.178-.027,7.764.022a.834.834,0,0,1,.872.871c.031,1.772.031,3.55,0,5.322a.906.906,0,0,1-1.078.885q-4.228.01-8.458,0a.9.9,0,0,1-1.078-.885c-.047-1.632,0-3.264-.02-4.894,0-.45.013-1.064.528-1.233m1.257,1.7c-.013,1.178-.016,2.357,0,3.535q3.543.017,7.083,0c.016-1.178.013-2.357,0-3.535Q71.3,230.739,67.758,230.756Z" transform="translate(-62.427 -184.632)" fill="#fff"/>
      <path id="Path_8200" data-name="Path 8200" d="M122.488,229.057a6.277,6.277,0,0,1,1.47-.089c2.588.031,5.176-.027,7.764.022a.835.835,0,0,1,.872.871q.047,2.658,0,5.322a.907.907,0,0,1-1.078.885q-4.228.01-8.458,0c-.452.031-1.009-.175-1.053-.694-.1-1.617-.007-3.242-.047-4.861.013-.508-.067-1.244.53-1.457m1.257,1.7q-.023,1.766,0,3.535,3.543.017,7.083,0,.02-1.766,0-3.535Q127.286,230.739,123.745,230.756Z" transform="translate(-105.996 -184.632)" fill="#fff"/>
    </g>
  </g>
</svg>
