<svg xmlns="http://www.w3.org/2000/svg" width="55.133" height="62.787" viewBox="0 0 55.133 62.787">
  <g id="Screenshot_24" transform="translate(-31.247 -68.236)">
    <g id="_3f004cff" data-name="#3f004cff" transform="translate(31.995 68.986)">
      <path id="Path_8278" data-name="Path 8278" d="M35.06,69.66a5.954,5.954,0,0,1,2.913-.673q15.211.011,30.424,0a5.754,5.754,0,0,1,5.219,3.383c.8,1.7.412,3.615.527,5.422q5.343,5.329,10.686,10.663a2.158,2.158,0,0,1,.8,1.6,1.907,1.907,0,0,1-1.906,1.906q-5.763.025-11.524,0a1.906,1.906,0,0,1-1.891-1.889c-.024-3.2.007-6.394-.01-9.592q-10.424-.011-20.844,0a1.983,1.983,0,0,0-1.882.958,3.3,3.3,0,0,0-.261,1.669c.022,13.813-.007,27.626.014,41.439a1.943,1.943,0,0,0,2.131,1.9c10.145-.007,20.291.012,30.436-.01a1.9,1.9,0,0,0,1.889-1.889c.026-8.949-.007-17.9.017-26.845a1.917,1.917,0,0,1,2.131-1.889,1.966,1.966,0,0,1,1.693,2.126c-.01,8.951.017,17.9-.012,26.855a5.769,5.769,0,0,1-5.719,5.48q-15.333.007-30.671,0a5.775,5.775,0,0,1-5.293-3.553,10.221,10.221,0,0,1-.44-4.1c-2.083-.031-4.165.043-6.246-.031a5.768,5.768,0,0,1-5.24-5.7Q31.991,95.8,32,74.721A5.754,5.754,0,0,1,35.06,69.66m.766,5.3v41.693a1.939,1.939,0,0,0,1.9,2.126c1.92.026,3.84,0,5.76.007q.007-18.077,0-36.151a5.8,5.8,0,0,1,5.731-5.978c7.026-.007,14.052,0,21.079,0a8.58,8.58,0,0,0-.172-2.715,1.971,1.971,0,0,0-1.958-1.113q-14.374,0-28.744,0a15.7,15.7,0,0,0-2.123.06,1.943,1.943,0,0,0-1.47,2.078m38.315,8.288c-.026,1.63-.012,3.263-.01,4.9,1.633,0,3.265.017,4.9-.01C77.445,86.458,75.815,84.823,74.141,83.243Z" transform="translate(-31.995 -68.986)" fill="#4fbde6" stroke="#fff" stroke-width="1.5"/>
    </g>
    <g id="_a384eaff" data-name="#a384eaff" transform="translate(51.148 91.955)">
      <path id="Path_8279" data-name="Path 8279" d="M116.634,165.056a5.745,5.745,0,1,1-3.5,9.047,5.709,5.709,0,0,1-.761-5.427,5.816,5.816,0,0,1,4.261-3.62m.486,3.83a1.912,1.912,0,1,0,2.432,2.437A1.924,1.924,0,0,0,117.12,168.886Z" transform="translate(-112.003 -164.932)" fill="#4fbde6" stroke="#fff" stroke-width="1.5"/>
      <path id="Path_8280" data-name="Path 8280" d="M144.56,181.057a1.93,1.93,0,0,1,2.535,1.594c.165,1.173-.917,1.913-1.625,2.662q-7.013,6.991-14.007,14.007a2.13,2.13,0,0,1-1.819.778,1.919,1.919,0,0,1-1.52-2.7,10.886,10.886,0,0,1,1.7-1.874q6.887-6.88,13.763-13.77A3.092,3.092,0,0,1,144.56,181.057Z" transform="translate(-124.122 -177.112)" fill="#4fbde6" stroke="#fff" stroke-width="1.5"/>
      <path id="Path_8281" data-name="Path 8281" d="M180.634,229.056a5.745,5.745,0,1,1-3.5,9.047,5.708,5.708,0,0,1-.761-5.427,5.808,5.808,0,0,1,4.261-3.62m.484,3.83a1.913,1.913,0,1,0,2.437,2.435A1.927,1.927,0,0,0,181.118,232.886Z" transform="translate(-160.682 -213.611)" fill="#4fbde6" stroke="#fff" stroke-width="1.5"/>
    </g>
  </g>
</svg>
