<svg xmlns="http://www.w3.org/2000/svg" width="84" height="84" viewBox="0 0 84 84">
  <g id="Group_2703" data-name="Group 2703" transform="translate(-445 -2740)">
    <circle id="Ellipse_6" data-name="Ellipse 6" cx="42" cy="42" r="42" transform="translate(445 2740)" fill="#4fbde6"/>
    <g id="_010101ff" data-name="#010101ff" transform="translate(432.664 2726.415)">
      <path id="Path_29" data-name="Path 29" d="M66.888,36.131a3.944,3.944,0,1,1-2.961,4.246,3.959,3.959,0,0,1,2.961-4.246m.355,1.789a2.124,2.124,0,1,0,2.7,1.717A2.133,2.133,0,0,0,67.243,37.92Z" transform="translate(-22.031 -0.01)" fill="#fff"/>
      <path id="Path_30" data-name="Path 30" d="M126.4,36.155a3.945,3.945,0,1,1-2.83,3.115,3.969,3.969,0,0,1,2.83-3.115m.359,1.8a2.123,2.123,0,1,0,2.747,1.47A2.125,2.125,0,0,0,126.763,37.951Z" transform="translate(-70.848 -0.01)" fill="#fff"/>
      <path id="Path_31" data-name="Path 31" d="M186.061,36.126a3.943,3.943,0,1,1-2.959,4.049,3.954,3.954,0,0,1,2.959-4.049m.348,1.791a2.125,2.125,0,1,0,2.731,1.726A2.135,2.135,0,0,0,186.409,37.917Z" transform="translate(-119.641)" fill="#fff"/>
      <path id="Path_32" data-name="Path 32" d="M45.907,75.238c.56-.235,1.05.232,1.517.465.431.273,1.059.48,1.128,1.068a.906.906,0,0,1-1.192.971,13.409,13.409,0,0,1-1.706-.985A.9.9,0,0,1,45.907,75.238Z" transform="translate(-6.836 -32.077)" fill="#fff"/>
      <path id="Path_33" data-name="Path 33" d="M42.836,89.95a2.8,2.8,0,0,1,5.6-.011c.027,1.269.005,2.541.009,3.812a2.956,2.956,0,0,1,3.725,1.994,2.824,2.824,0,0,1,3.363,1A3.288,3.288,0,0,1,56,98.7a2.794,2.794,0,0,1,3.788,2.1c.1,1.273.024,2.555.045,3.834a.95.95,0,0,1-.78,1.052.9.9,0,0,1-1.029-.882c-.043-1.213.027-2.43-.027-3.643a.941.941,0,0,0-1.633-.529c-.735.878-.129,2.108-.494,3.095a.907.907,0,0,1-1.688-.351c-.047-1.7.007-3.4-.022-5.1a.9.9,0,0,0-1.2-.857,1.273,1.273,0,0,0-.71,1.206c-.047,1.277.029,2.557-.029,3.834a.906.906,0,0,1-1.394.634.928.928,0,0,1-.4-.819c-.02-1.938.013-3.875-.013-5.811a1.03,1.03,0,0,0-1.1-1.02.875.875,0,0,0-.864.842c-.022,1.811.005,3.623-.011,5.434a.909.909,0,1,1-1.813.022c-.014-3.872.011-7.743-.011-11.615a.972.972,0,0,0-.933-1.021,1,1,0,0,0-1.036,1.038c-.016,4.947.018,9.894-.014,14.842a.9.9,0,0,1-1.422.674c-.411-.272-.391-.813-.5-1.239a10.784,10.784,0,0,0-1.487-3.868,3,3,0,0,0-1.729-1.3.539.539,0,0,0-.666.641,48.619,48.619,0,0,1,2.213,6,23.633,23.633,0,0,1,.322,4.125c.328,2.11,2.725,2.912,3.466,4.8a9.594,9.594,0,0,1,.282,3.419c3.788.007,7.577,0,11.365.005a30.685,30.685,0,0,1,.074-3.136,8.507,8.507,0,0,1,1.28-2.323c.27-.505.025-1.26.594-1.592a.913.913,0,0,1,1.4.838,5.588,5.588,0,0,1-1.389,3.165,13.539,13.539,0,0,0-.138,3.033c.514-.005,1.143.243,1.159.844.036,1.454.018,2.912.016,4.368a.882.882,0,0,1-.918.891c-5.2.025-10.4.014-15.6.016a.936.936,0,0,1-1.081-.882c0-1.512-.054-3.03.024-4.538.139-.636.864-.7,1.4-.679-.087-1.029.235-2.173-.339-3.1-.987-1.251-2.457-2.149-3.064-3.683-.648-1.431-.241-3.031-.518-4.533a21.836,21.836,0,0,0-1.7-5.016,4.564,4.564,0,0,1-.641-2.579,2.382,2.382,0,0,1,2.687-1.9,4.841,4.841,0,0,1,3.107,2.216c-.011-3.234-.016-6.468,0-9.7m.849,30.145c.014.811.007,1.623.011,2.434,4.657-.005,9.315,0,13.972,0q-.005-1.222,0-2.441Q50.675,120.079,43.685,120.1Z" transform="translate(0 -41.99)" fill="#fff"/>
      <path id="Path_34" data-name="Path 34" d="M126.4,87.98a3.941,3.941,0,1,1-2.856,3.336A3.944,3.944,0,0,1,126.4,87.98m.351,1.793a2.125,2.125,0,1,0,2.827,1.883A2.137,2.137,0,0,0,126.753,89.773Z" transform="translate(-70.854 -42.446)" fill="#fff"/>
      <path id="Path_35" data-name="Path 35" d="M185.881,88a3.942,3.942,0,1,1-2.762,4.236A3.949,3.949,0,0,1,185.881,88m.674,1.7a2.127,2.127,0,1,0,2.588,1.8A2.138,2.138,0,0,0,186.554,89.7Z" transform="translate(-119.636 -42.445)" fill="#fff"/>
      <path id="Path_36" data-name="Path 36" d="M44.315,99.175c.426-.08.936-.239,1.293.1a.906.906,0,0,1-.306,1.541,12.573,12.573,0,0,1-1.983.369.914.914,0,0,1-.681-1.353C42.986,99.265,43.748,99.345,44.315,99.175Z" transform="translate(-4.521 -51.644)" fill="#fff"/>
      <path id="Path_37" data-name="Path 37" d="M185.851,139.819a3.942,3.942,0,1,1-2.713,4.431,3.973,3.973,0,0,1,2.713-4.431m.371,1.8a2.125,2.125,0,1,0,2.883,1.541A2.125,2.125,0,0,0,186.222,141.616Z" transform="translate(-119.626 -84.871)" fill="#fff"/>
      <path id="Path_38" data-name="Path 38" d="M153.508,198.685a.915.915,0,1,1-.02,1.537A.931.931,0,0,1,153.508,198.685Z" transform="translate(-95.074 -133.1)" fill="#fff"/>
    </g>
  </g>
</svg>
