<svg xmlns="http://www.w3.org/2000/svg" width="137.999" height="52.982" viewBox="0 0 137.999 52.982">
  <g id="Group_2701" data-name="Group 2701" transform="translate(-782 -6050.844)">
    <path id="Path_8174" data-name="Path 8174" d="M334.834,132.912c3.12-.659,6.236-1.33,9.355-1.992q-.021,4.159-.038,8.319,3.641,0,7.283,0,0,4.081,0,8.163c-2.429,0-4.857,0-7.286,0q0,6.829,0,13.658a4.208,4.208,0,0,0,1.012,2.993,3.889,3.889,0,0,0,2.715,1.015,9.917,9.917,0,0,0,3.556-.638q0,3.885,0,7.772a13.181,13.181,0,0,1-4.974,1.2,11.308,11.308,0,0,1-7.06-1.362,9.63,9.63,0,0,1-4.6-8.18Q334.8,148.388,334.834,132.912Z" transform="translate(473.425 5919.924)" fill="#d2d2d2"/>
    <path id="Path_8175" data-name="Path 8175" d="M153.777,186.938a18.311,18.311,0,0,1,8.826-1.267,24.9,24.9,0,0,1,7.562,1.7q0,4.5,0,9.007a21.464,21.464,0,0,0-9.1-2.439,5.29,5.29,0,0,0-2.862.5,1.823,1.823,0,0,0-.349,2.716,7.387,7.387,0,0,0,2.91,1.6c2.494.9,5.1,1.626,7.314,3.147a8.712,8.712,0,0,1,3.665,5.176,11,11,0,0,1-.886,7.586,10.245,10.245,0,0,1-5.047,4.467,19.261,19.261,0,0,1-9.091,1.287,26.832,26.832,0,0,1-8.595-2.117c.006-3.037-.011-6.075.008-9.112a27.634,27.634,0,0,0,7.482,2.746,12.842,12.842,0,0,0,4.48.189,2.781,2.781,0,0,0,1.8-.959,2.111,2.111,0,0,0-.181-2.622,7.507,7.507,0,0,0-2.743-1.611c-2.683-1.055-5.545-1.835-7.884-3.588a8.058,8.058,0,0,1-3.243-5.154,11.08,11.08,0,0,1,1.012-6.757A10.1,10.1,0,0,1,153.777,186.938Z" transform="translate(634.297 5872.906)" fill="#d2d2d2"/>
    <path id="Path_8176" data-name="Path 8176" d="M720.794,185.752a11.25,11.25,0,0,1,7.454,1.371,13.534,13.534,0,0,1,5,5.217,20.438,20.438,0,0,1,2.363,8.323,29.887,29.887,0,0,1-.265,6.833,18.543,18.543,0,0,1-3,7.863,12,12,0,0,1-5.081,4.159,11.027,11.027,0,0,1-11.46-1.48q-.017,5.426-.039,10.853-4.789,1.026-9.582,2.031,0-22.351,0-44.7c2.8,0,5.6-.015,8.4.01.251.743.341,1.581.534,2.36a11.008,11.008,0,0,1,5.681-2.84M715.763,196q.023,7.108.038,14.22a6.054,6.054,0,0,0,5.374,1.725,5.471,5.471,0,0,0,3.643-2.851,12.869,12.869,0,0,0,1.375-7.038,10.508,10.508,0,0,0-2.224-6.169,4.78,4.78,0,0,0-3.946-1.759A5.709,5.709,0,0,0,715.763,196Z" transform="translate(154.099 5872.904)" fill="#d2d2d2"/>
    <path id="Path_8177" data-name="Path 8177" d="M940.586,185.942a14.5,14.5,0,0,1,7.713.4,12.08,12.08,0,0,1,5.52,4.014,19.194,19.194,0,0,1,3.62,9.812,47.143,47.143,0,0,1,.08,6.4q-9.373,0-18.746,0a6.107,6.107,0,0,0,2.018,4.261,8.739,8.739,0,0,0,5.836,1.56,20.483,20.483,0,0,0,8.973-2.1c.008,2.548-.013,5.1.01,7.646a20.07,20.07,0,0,1-8.142,2.4,21.564,21.564,0,0,1-7.294-.474,13.721,13.721,0,0,1-9.7-8.678,22.959,22.959,0,0,1-1.353-8.568,19.51,19.51,0,0,1,4.09-12.166,13.2,13.2,0,0,1,7.377-4.516m-.039,8.64a6.459,6.459,0,0,0-1.889,4.934q4.945,0,9.893,0a6.463,6.463,0,0,0-2.074-5.181A4.678,4.678,0,0,0,940.547,194.582Z" transform="translate(-37.59 5872.905)" fill="#d2d2d2"/>
    <path id="Path_8178" data-name="Path 8178" d="M486.96,187.9a7.349,7.349,0,0,1,4.986-.088v8.819a6.679,6.679,0,0,0-7.284,2q0,11.366,0,22.732-4.792.006-9.583,0,0-16.774,0-33.547h8.278q.309,1.415.614,2.833A5.977,5.977,0,0,1,486.96,187.9Z" transform="translate(352.809 5871.34)" fill="#d2d2d2"/>
    <path id="Path_8179" data-name="Path 8179" d="M612.1,190.246q4.81,0,9.621,0,0,16.776,0,33.549H612.1Q612.093,207.021,612.1,190.246Z" transform="translate(234.996 5868.914)" fill="#d2d2d2"/>
  </g>
</svg>
