<svg id="g10267" xmlns="http://www.w3.org/2000/svg" xmlns:xlink="http://www.w3.org/1999/xlink" width="123.276" height="38.583" viewBox="0 0 123.276 38.583">
  <defs>
    <clipPath id="clip-path">
      <path id="path10273" d="M1868.578-489.868c-.07,5.375,4.942,8.374,8.718,10.157,3.88,1.83,5.183,3,5.168,4.639-.03,2.5-3.095,3.609-5.964,3.652a21.337,21.337,0,0,1-10.228-2.357l-1.8,8.177a30.826,30.826,0,0,0,11.076,1.98c10.461,0,17.306-5,17.343-12.765.041-9.848-14.055-10.394-13.959-14.8.033-1.335,1.347-2.759,4.228-3.121a19.285,19.285,0,0,1,9.821,1.668l1.751-7.911a27.446,27.446,0,0,0-9.321-1.658c-9.846,0-16.772,5.073-16.828,12.335m42.974-11.653a4.543,4.543,0,0,0-4.238,2.737L1892.369-464.2h10.454l2.081-5.572h12.775l1.207,5.572h9.214l-8.04-37.32h-8.507m1.463,10.082,3.017,14.014h-8.262l5.246-14.014M1855.9-501.521l-8.24,37.32h9.961l8.236-37.32H1855.9m-14.737,0-10.369,25.4-4.194-21.6a4.605,4.605,0,0,0-4.594-3.8h-16.95l-.237,1.083a42.379,42.379,0,0,1,9.828,3.175c1.466.771,1.885,1.446,2.365,3.279l7.944,29.782h10.528l16.14-37.32h-10.461" transform="translate(-1804.822 502.203)" fill="#d2d2d2"/>
    </clipPath>
  </defs>
  <g id="g10269" clip-path="url(#clip-path)">
    <g id="g10275" transform="translate(-12.909 -38.747)">
      <path id="path10283" d="M0-137.35,121.464-180.7,149.1-107.982,27.634-64.627" transform="translate(0 180.705)" fill="#d2d2d2"/>
    </g>
  </g>
</svg>
