<svg xmlns="http://www.w3.org/2000/svg" width="84" height="84" viewBox="0 0 84 84">
  <g id="Group_2700" data-name="Group 2700" transform="translate(-758 -1363)">
    <circle id="Ellipse_3" data-name="Ellipse 3" cx="42" cy="42" r="42" transform="translate(758 1363)" fill="#4fbde6"/>
    <g id="_000000ff" data-name="#000000ff" transform="translate(700.952 1322.976)">
      <path id="Path_18" data-name="Path 18" d="M95.524,59.128A20.72,20.72,0,0,1,118.3,77.077a1.724,1.724,0,0,1-1.7,1.8,1.748,1.748,0,0,1-1.736-1.631A17.271,17.271,0,1,0,94.9,96.788a1.763,1.763,0,0,1,1.65,1.8,1.724,1.724,0,0,1-1.963,1.633A20.746,20.746,0,0,1,77.9,85.69,20.713,20.713,0,0,1,88.61,61.129,20.622,20.622,0,0,1,95.524,59.128Z" fill="#fff"/>
      <path id="Path_19" data-name="Path 19" d="M156.9,96.543a1.719,1.719,0,0,1,2.474-1.39,1.845,1.845,0,0,1,.957,1.884c-.009,4.129,0,8.258,0,12.386a1.824,1.824,0,0,1-.592,1.392c-2.113,2.132-4.208,4.28-6.329,6.4a1.717,1.717,0,0,1-2.364-2.491c1.944-1.966,3.876-3.945,5.834-5.9C156.91,104.734,156.862,100.638,156.9,96.543Z" transform="translate(-60.85 -29.77)" fill="#fff"/>
      <path id="Path_20" data-name="Path 20" d="M208.877,180.139a11.415,11.415,0,0,1,4.939.341,1.716,1.716,0,0,1-1.084,3.257,8.175,8.175,0,1,0,5.858,9.519,1.749,1.749,0,0,1,1.916-1.533,1.719,1.719,0,0,1,1.51,1.891,11.515,11.515,0,0,1-3.938,6.88,11.611,11.611,0,1,1-9.2-20.353Z" transform="translate(-100.966 -100.188)" fill="#fff"/>
      <path id="Path_21" data-name="Path 21" d="M248.86,205.023a1.716,1.716,0,0,1,2.429,2.426q-3.755,3.734-7.526,7.452a3.036,3.036,0,0,1-3.31.633,5.8,5.8,0,0,1-1.708-1.4c-.6-.6-1.209-1.192-1.8-1.8a1.714,1.714,0,0,1,2.41-2.436c.772.745,1.519,1.519,2.283,2.274Q245.254,208.6,248.86,205.023Z" transform="translate(-132.017 -120.487)" fill="#fff"/>
    </g>
  </g>
</svg>
